<svg width="554" height="647" xmlns="http://www.w3.org/2000/svg" xmlns:xlink="http://www.w3.org/1999/xlink" overflow="hidden"><defs><clipPath id="clip0"><rect x="363" y="73" width="554" height="647"/></clipPath></defs><g clip-path="url(#clip0)" transform="translate(-363 -73)"><path d="M654.364 684.581 1119.99 684.581 1119.99 688.392 654.364 688.392ZM1117.46 678.871 1132.69 686.486 1117.46 694.102Z" transform="matrix(1 0 0 1.00038 -275.579 -162.048)"/><path d="M1.90383-8.53536e-07 1.90402 433.137-1.90364 433.137-1.90383 8.53536e-07ZM7.61549 430.598 0.000199877 445.829-7.61515 430.598Z" transform="matrix(1 0 0 -1.00038 378.784 524.686)"/><path d="M891.961 686.287 891.961 392.95" stroke="#4472C4" stroke-width="1.90383" stroke-linejoin="round" stroke-miterlimit="10" stroke-dasharray="7.61532 5.71149" fill="none" fill-rule="evenodd" transform="matrix(1 0 0 1.00038 -275.579 -162.048)"/><text fill="#0070C0" font-family="Arial,Arial_MSFontService,sans-serif" font-weight="400" font-size="83" transform="matrix(0.553841 0 0 0.55405 520.64 682)">bandwidth<tspan fill="#000000" font-style="italic" font-size="83" x="660.858" y="-189.514">f</tspan><tspan fill="#000000" font-size="83" x="32.3197" y="-1124.45">bandpass</tspan><tspan font-style="italic" font-size="83" x="148.604" y="-191.318">fc</tspan></text><path d="M747.963 685.932 819.962 392.95 963.961 392.95 1035.96 685.932Z" stroke="#2F528F" stroke-width="2.53844" stroke-miterlimit="8" fill="none" fill-rule="evenodd" transform="matrix(1 0 0 1.00038 -275.579 -162.048)"/><path d="M0 0 2.00517 311.759" stroke="#4472C4" stroke-width="1.90383" stroke-linejoin="round" stroke-miterlimit="10" stroke-dasharray="7.61532 5.71149" fill="none" fill-rule="evenodd" transform="matrix(1 0 0 -1.00038 527.768 614.952)"/><path d="M0 0 2.04195 311.759" stroke="#4472C4" stroke-width="1.90383" stroke-linejoin="round" stroke-miterlimit="10" stroke-dasharray="7.61532 5.71149" fill="none" fill-rule="evenodd" transform="matrix(1 0 0 -1.00038 702.228 614.952)"/><path d="M817.979 776.402 967.051 776.402 967.051 777.676 817.979 777.676ZM820.516 784.655 805.285 777.039 820.516 769.424ZM964.509 769.424 979.74 777.039 964.509 784.655Z" fill="#4472C4" transform="matrix(1 0 0 1.00038 -275.579 -162.048)"/></g></svg>