<svg width="636" height="633" xmlns="http://www.w3.org/2000/svg" xmlns:xlink="http://www.w3.org/1999/xlink" overflow="hidden"><defs><clipPath id="clip0"><rect x="189" y="87" width="636" height="633"/></clipPath></defs><g clip-path="url(#clip0)" transform="translate(-189 -87)"><path d="M765.677 801.035 1310.52 801.035 1310.52 805.494 765.677 805.494ZM1307.55 794.354 1325.37 803.265 1307.55 812.175Z" transform="matrix(1 0 0 1.00016 -566.359 -189.366)"/><path d="M2.22769-9.98731e-07 2.22792 506.818-2.22746 506.818-2.22769 9.98731e-07ZM8.91096 503.847 0.000233878 521.669-8.91057 503.847Z" transform="matrix(1 0 0 -1.00016 199.319 614.013)"/><path d="M0 0 0.000233878 331.66" stroke="#4472C4" stroke-width="2.22769" stroke-linejoin="round" stroke-miterlimit="10" stroke-dasharray="8.91076 6.68307" fill="none" fill-rule="evenodd" transform="matrix(1 0 0 -1.00016 477.982 603.513)"/><text font-family="Arial,Arial_MSFontService,sans-serif" font-style="italic" font-weight="400" font-size="83" transform="matrix(0.648055 0 0 0.648158 793.579 675)">f<tspan font-style="normal" font-size="83" x="-628.538" y="-934.957">lowpass</tspan><tspan fill="#0070C0" font-size="83" x="-512.254" y="-1.54283">fc</tspan></text><path d="M661.989 803.913 747.694 461.091 1044.83 461.091 1130.53 803.913Z" stroke="#2F528F" stroke-width="2.97025" stroke-miterlimit="8" fill="none" fill-rule="evenodd" transform="matrix(1 0 0 1.00016 -566.359 -189.366)"/><path d="M647.731 326.944 760.493 326.944 760.493 825.298 647.731 825.298Z" stroke="#FFFFFF" stroke-width="2.97025" stroke-miterlimit="8" fill="#FFFFFF" transform="matrix(1 0 0 1.00016 -566.359 -189.366)"/></g></svg>