<svg width="650" height="634" xmlns="http://www.w3.org/2000/svg" xmlns:xlink="http://www.w3.org/1999/xlink" overflow="hidden"><defs><clipPath id="clip0"><rect x="131" y="86" width="650" height="634"/></clipPath></defs><g clip-path="url(#clip0)" transform="translate(-131 -86)"><path d="M765.084 800.415 1309.5 800.415 1309.5 804.87 765.084 804.87ZM1306.54 793.738 1324.34 802.642 1306.54 811.546Z" transform="matrix(1 0 0 1.00006 -615.629 -189.215)"/><path d="M2.22596-9.97957e-07 2.22619 506.425-2.22574 506.425-2.22596 9.97957e-07ZM8.90405 503.457 0.000233697 521.265-8.90366 503.457Z" transform="matrix(1 0 0 -1.00006 149.455 613.459)"/><path d="M0 0 0.000233697 390.351" stroke="#4472C4" stroke-width="2.22596" stroke-linejoin="round" stroke-miterlimit="10" stroke-dasharray="8.90386 6.67789" fill="none" fill-rule="evenodd" transform="matrix(1 0 0 -1.00006 409.124 611.406)"/><text font-family="Arial,Arial_MSFontService,sans-serif" font-style="italic" font-weight="400" font-size="83" transform="matrix(0.647553 0 0 0.647589 743.255 675)">f<tspan font-style="normal" font-size="83" x="-628.538" y="-935.779">shelving </tspan><tspan font-style="normal" font-size="83" x="-302.538" y="-935.779">(</tspan><tspan font-style="normal" font-size="83" x="-275.621" y="-935.779">lowshelf</tspan><tspan font-style="normal" font-size="83" x="22.2954" y="-935.779">)</tspan><tspan fill="#0070C0" font-size="83" x="-553.975" y="0">fc</tspan></text><path d="M750.838 307.264 761.846 307.264 761.846 805.232 750.838 805.232Z" stroke="#FFFFFF" stroke-width="2.96795" stroke-miterlimit="8" fill="#FFFFFF" transform="matrix(1 0 0 1.00006 -615.629 -189.215)"/><path d="M1044.83 457.496 1323.5 457.496" stroke="#4472C4" stroke-width="2.96795" stroke-miterlimit="8" fill="none" fill-rule="evenodd" transform="matrix(1 0 0 1.00006 -615.629 -189.215)"/><path d="M1044.24 457.444 1005.97 362.306" stroke="#4472C4" stroke-width="2.96795" stroke-miterlimit="8" fill="none" fill-rule="evenodd" transform="matrix(1 0 0 1.00006 -615.629 -189.215)"/><path d="M765.084 363.601 1006.45 363.601" stroke="#4472C4" stroke-width="2.96795" stroke-miterlimit="8" fill="none" fill-rule="evenodd" transform="matrix(1 0 0 1.00006 -615.629 -189.215)"/><path d="M0 0 38.2625 95.1379" stroke="#ED7D31" stroke-width="2.96795" stroke-miterlimit="8" fill="none" fill-rule="evenodd" transform="matrix(1 0 0 -1.00006 390.345 363.45)"/><path d="M765.084 552.039 1006.45 552.039" stroke="#ED7D31" stroke-width="2.96795" stroke-miterlimit="8" fill="none" fill-rule="evenodd" transform="matrix(1 0 0 1.00006 -615.629 -189.215)"/></g></svg>