<svg width="789" height="629" xmlns="http://www.w3.org/2000/svg" xmlns:xlink="http://www.w3.org/1999/xlink" overflow="hidden"><defs><clipPath id="clip0"><rect x="156" y="91" width="789" height="629"/></clipPath></defs><g clip-path="url(#clip0)" transform="translate(-156 -91)"><path d="M732.557 766.386 1253.83 766.386 1253.83 770.651 732.557 770.651ZM1250.99 759.993 1268.04 768.518 1250.99 777.044Z" transform="matrix(1 0 0 1.00029 -330.322 -157.591)"/><path d="M2.13133-9.5553e-07 2.13155 484.895-2.13111 484.895-2.13133 9.5553e-07ZM8.5255 482.053 0.000223761 499.104-8.52513 482.053Z" transform="matrix(1 0 0 -1.00029 402.235 611.142)"/><path d="M0 0 265.319 280.591" stroke="#4472C4" stroke-width="2.84177" stroke-miterlimit="8" fill="none" fill-rule="evenodd" transform="matrix(1 0 0 -1.00029 612.423 396.903)"/><path d="M0 0 0.000223761 210.159" stroke="#4472C4" stroke-width="2.84177" stroke-miterlimit="8" fill="none" fill-rule="evenodd" transform="matrix(1 0 0 -1.00029 611.183 609.262)"/><path d="M930.344 554.3C930.344 547.623 935.621 542.21 942.125 542.21 948.629 542.21 953.905 547.623 953.905 554.3 953.905 560.977 948.629 566.391 942.125 566.391 935.621 566.391 930.344 560.977 930.344 554.3Z" stroke="#2F528F" stroke-width="2.84177" stroke-miterlimit="8" fill="#4472C4" fill-rule="evenodd" transform="matrix(1 0 0 1.00029 -330.322 -157.591)"/><text fill="#0070C0" font-family="Arial,Arial_MSFontService,sans-serif" font-weight="400" font-size="83" transform="matrix(0.620023 0 0 0.620206 642.469 417)">threshold<tspan fill="#000000" font-size="83" x="-103.828" y="419.216">input dB</tspan><tspan fill="#000000" font-size="83" x="-764.686" y="-108.029">output dB</tspan><tspan fill="#000000" font-size="83" x="-185.507" y="-567.554">n</tspan><tspan fill="#000000" font-size="83" x="-139.674" y="-567.554">oise </tspan><tspan fill="#000000" font-size="83" x="34.4925" y="-567.554">gate</tspan><tspan font-size="83" x="177.764" y="-201.546">(</tspan><tspan font-size="83" x="205.764" y="-201.546">1</tspan>:<tspan font-size="83" x="274.764" y="-201.546">1</tspan>)</text><path d="M0 0 210.742 0.000223761" stroke="#4472C4" stroke-width="2.84177" stroke-miterlimit="8" fill="none" fill-rule="evenodd" transform="matrix(-1 0 0 1.00029 612.975 608.053)"/></g></svg>