<?xml version="1.0" encoding="utf-8" standalone="no"?>
<!DOCTYPE svg PUBLIC "-//W3C//DTD SVG 1.1//EN"
  "http://www.w3.org/Graphics/SVG/1.1/DTD/svg11.dtd">
<svg height="419.34pt" version="1.1" viewBox="0 0 532.152726 419.34" width="532.152726pt" xmlns="http://www.w3.org/2000/svg" xmlns:xlink="http://www.w3.org/1999/xlink">
 <metadata>
  <rdf:RDF xmlns:cc="http://creativecommons.org/ns#" xmlns:dc="http://purl.org/dc/elements/1.1/" xmlns:rdf="http://www.w3.org/1999/02/22-rdf-syntax-ns#">
   <cc:Work>
    <dc:type rdf:resource="http://purl.org/dc/dcmitype/StillImage"/>
    <dc:date>2022-11-24T15:33:03.765985</dc:date>
    <dc:format>image/svg+xml</dc:format>
    <dc:creator>
     <cc:Agent>
      <dc:title>Matplotlib v3.4.2, https://matplotlib.org/</dc:title>
     </cc:Agent>
    </dc:creator>
   </cc:Work>
  </rdf:RDF>
 </metadata>
 <defs>
  <style type="text/css">*{stroke-linecap:butt;stroke-linejoin:round;}</style>
 </defs>
 <g id="figure_1">
  <g id="patch_1">
   <path d="M 0 419.34 
L 532.152726 419.34 
L 532.152726 0 
L 0 0 
z
" style="fill:none;"/>
  </g>
  <g id="axes_1">
   <g id="patch_2">
    <path d="M 52.160938 177.961875 
L 179.314191 177.961875 
L 179.314191 22.318125 
L 52.160938 22.318125 
z
" style="fill:#ffffff;"/>
   </g>
   <g id="matplotlib.axis_1">
    <g id="xtick_1">
     <g id="line2d_1">
      <defs>
       <path d="M 0 0 
L 0 3.5 
" id="m716874c67d" style="stroke:#000000;stroke-width:0.8;"/>
      </defs>
      <g>
       <use style="stroke:#000000;stroke-width:0.8;" x="56.773016" xlink:href="#m716874c67d" y="177.961875"/>
      </g>
     </g>
     <g id="text_1">
      <!-- 0.0 -->
      <g transform="translate(48.821454 192.560312)scale(0.1 -0.1)">
       <defs>
        <path d="M 2034 4250 
Q 1547 4250 1301 3770 
Q 1056 3291 1056 2328 
Q 1056 1369 1301 889 
Q 1547 409 2034 409 
Q 2525 409 2770 889 
Q 3016 1369 3016 2328 
Q 3016 3291 2770 3770 
Q 2525 4250 2034 4250 
z
M 2034 4750 
Q 2819 4750 3233 4129 
Q 3647 3509 3647 2328 
Q 3647 1150 3233 529 
Q 2819 -91 2034 -91 
Q 1250 -91 836 529 
Q 422 1150 422 2328 
Q 422 3509 836 4129 
Q 1250 4750 2034 4750 
z
" id="DejaVuSans-30" transform="scale(0.015625)"/>
        <path d="M 684 794 
L 1344 794 
L 1344 0 
L 684 0 
L 684 794 
z
" id="DejaVuSans-2e" transform="scale(0.015625)"/>
       </defs>
       <use xlink:href="#DejaVuSans-30"/>
       <use x="63.623047" xlink:href="#DejaVuSans-2e"/>
       <use x="95.410156" xlink:href="#DejaVuSans-30"/>
      </g>
     </g>
    </g>
    <g id="xtick_2">
     <g id="line2d_2">
      <g>
       <use style="stroke:#000000;stroke-width:0.8;" x="115.153757" xlink:href="#m716874c67d" y="177.961875"/>
      </g>
     </g>
     <g id="text_2">
      <!-- 0.5 -->
      <g transform="translate(107.202194 192.560312)scale(0.1 -0.1)">
       <defs>
        <path d="M 691 4666 
L 3169 4666 
L 3169 4134 
L 1269 4134 
L 1269 2991 
Q 1406 3038 1543 3061 
Q 1681 3084 1819 3084 
Q 2600 3084 3056 2656 
Q 3513 2228 3513 1497 
Q 3513 744 3044 326 
Q 2575 -91 1722 -91 
Q 1428 -91 1123 -41 
Q 819 9 494 109 
L 494 744 
Q 775 591 1075 516 
Q 1375 441 1709 441 
Q 2250 441 2565 725 
Q 2881 1009 2881 1497 
Q 2881 1984 2565 2268 
Q 2250 2553 1709 2553 
Q 1456 2553 1204 2497 
Q 953 2441 691 2322 
L 691 4666 
z
" id="DejaVuSans-35" transform="scale(0.015625)"/>
       </defs>
       <use xlink:href="#DejaVuSans-30"/>
       <use x="63.623047" xlink:href="#DejaVuSans-2e"/>
       <use x="95.410156" xlink:href="#DejaVuSans-35"/>
      </g>
     </g>
    </g>
    <g id="xtick_3">
     <g id="line2d_3">
      <g>
       <use style="stroke:#000000;stroke-width:0.8;" x="173.534497" xlink:href="#m716874c67d" y="177.961875"/>
      </g>
     </g>
     <g id="text_3">
      <!-- 1.0 -->
      <g transform="translate(165.582935 192.560312)scale(0.1 -0.1)">
       <defs>
        <path d="M 794 531 
L 1825 531 
L 1825 4091 
L 703 3866 
L 703 4441 
L 1819 4666 
L 2450 4666 
L 2450 531 
L 3481 531 
L 3481 0 
L 794 0 
L 794 531 
z
" id="DejaVuSans-31" transform="scale(0.015625)"/>
       </defs>
       <use xlink:href="#DejaVuSans-31"/>
       <use x="63.623047" xlink:href="#DejaVuSans-2e"/>
       <use x="95.410156" xlink:href="#DejaVuSans-30"/>
      </g>
     </g>
    </g>
   </g>
   <g id="matplotlib.axis_2">
    <g id="ytick_1">
     <g id="line2d_4">
      <defs>
       <path d="M 0 0 
L -3.5 0 
" id="me86e7073f9" style="stroke:#000000;stroke-width:0.8;"/>
      </defs>
      <g>
       <use style="stroke:#000000;stroke-width:0.8;" x="52.160938" xlink:href="#me86e7073f9" y="170.887159"/>
      </g>
     </g>
     <g id="text_4">
      <!-- 0.0 -->
      <g transform="translate(29.257812 174.686378)scale(0.1 -0.1)">
       <use xlink:href="#DejaVuSans-30"/>
       <use x="63.623047" xlink:href="#DejaVuSans-2e"/>
       <use x="95.410156" xlink:href="#DejaVuSans-30"/>
      </g>
     </g>
    </g>
    <g id="ytick_2">
     <g id="line2d_5">
      <g>
       <use style="stroke:#000000;stroke-width:0.8;" x="52.160938" xlink:href="#me86e7073f9" y="142.588295"/>
      </g>
     </g>
     <g id="text_5">
      <!-- 0.2 -->
      <g transform="translate(29.257812 146.387514)scale(0.1 -0.1)">
       <defs>
        <path d="M 1228 531 
L 3431 531 
L 3431 0 
L 469 0 
L 469 531 
Q 828 903 1448 1529 
Q 2069 2156 2228 2338 
Q 2531 2678 2651 2914 
Q 2772 3150 2772 3378 
Q 2772 3750 2511 3984 
Q 2250 4219 1831 4219 
Q 1534 4219 1204 4116 
Q 875 4013 500 3803 
L 500 4441 
Q 881 4594 1212 4672 
Q 1544 4750 1819 4750 
Q 2544 4750 2975 4387 
Q 3406 4025 3406 3419 
Q 3406 3131 3298 2873 
Q 3191 2616 2906 2266 
Q 2828 2175 2409 1742 
Q 1991 1309 1228 531 
z
" id="DejaVuSans-32" transform="scale(0.015625)"/>
       </defs>
       <use xlink:href="#DejaVuSans-30"/>
       <use x="63.623047" xlink:href="#DejaVuSans-2e"/>
       <use x="95.410156" xlink:href="#DejaVuSans-32"/>
      </g>
     </g>
    </g>
    <g id="ytick_3">
     <g id="line2d_6">
      <g>
       <use style="stroke:#000000;stroke-width:0.8;" x="52.160938" xlink:href="#me86e7073f9" y="114.289432"/>
      </g>
     </g>
     <g id="text_6">
      <!-- 0.4 -->
      <g transform="translate(29.257812 118.088651)scale(0.1 -0.1)">
       <defs>
        <path d="M 2419 4116 
L 825 1625 
L 2419 1625 
L 2419 4116 
z
M 2253 4666 
L 3047 4666 
L 3047 1625 
L 3713 1625 
L 3713 1100 
L 3047 1100 
L 3047 0 
L 2419 0 
L 2419 1100 
L 313 1100 
L 313 1709 
L 2253 4666 
z
" id="DejaVuSans-34" transform="scale(0.015625)"/>
       </defs>
       <use xlink:href="#DejaVuSans-30"/>
       <use x="63.623047" xlink:href="#DejaVuSans-2e"/>
       <use x="95.410156" xlink:href="#DejaVuSans-34"/>
      </g>
     </g>
    </g>
    <g id="ytick_4">
     <g id="line2d_7">
      <g>
       <use style="stroke:#000000;stroke-width:0.8;" x="52.160938" xlink:href="#me86e7073f9" y="85.990568"/>
      </g>
     </g>
     <g id="text_7">
      <!-- 0.6 -->
      <g transform="translate(29.257812 89.789787)scale(0.1 -0.1)">
       <defs>
        <path d="M 2113 2584 
Q 1688 2584 1439 2293 
Q 1191 2003 1191 1497 
Q 1191 994 1439 701 
Q 1688 409 2113 409 
Q 2538 409 2786 701 
Q 3034 994 3034 1497 
Q 3034 2003 2786 2293 
Q 2538 2584 2113 2584 
z
M 3366 4563 
L 3366 3988 
Q 3128 4100 2886 4159 
Q 2644 4219 2406 4219 
Q 1781 4219 1451 3797 
Q 1122 3375 1075 2522 
Q 1259 2794 1537 2939 
Q 1816 3084 2150 3084 
Q 2853 3084 3261 2657 
Q 3669 2231 3669 1497 
Q 3669 778 3244 343 
Q 2819 -91 2113 -91 
Q 1303 -91 875 529 
Q 447 1150 447 2328 
Q 447 3434 972 4092 
Q 1497 4750 2381 4750 
Q 2619 4750 2861 4703 
Q 3103 4656 3366 4563 
z
" id="DejaVuSans-36" transform="scale(0.015625)"/>
       </defs>
       <use xlink:href="#DejaVuSans-30"/>
       <use x="63.623047" xlink:href="#DejaVuSans-2e"/>
       <use x="95.410156" xlink:href="#DejaVuSans-36"/>
      </g>
     </g>
    </g>
    <g id="ytick_5">
     <g id="line2d_8">
      <g>
       <use style="stroke:#000000;stroke-width:0.8;" x="52.160938" xlink:href="#me86e7073f9" y="57.691705"/>
      </g>
     </g>
     <g id="text_8">
      <!-- 0.8 -->
      <g transform="translate(29.257812 61.490923)scale(0.1 -0.1)">
       <defs>
        <path d="M 2034 2216 
Q 1584 2216 1326 1975 
Q 1069 1734 1069 1313 
Q 1069 891 1326 650 
Q 1584 409 2034 409 
Q 2484 409 2743 651 
Q 3003 894 3003 1313 
Q 3003 1734 2745 1975 
Q 2488 2216 2034 2216 
z
M 1403 2484 
Q 997 2584 770 2862 
Q 544 3141 544 3541 
Q 544 4100 942 4425 
Q 1341 4750 2034 4750 
Q 2731 4750 3128 4425 
Q 3525 4100 3525 3541 
Q 3525 3141 3298 2862 
Q 3072 2584 2669 2484 
Q 3125 2378 3379 2068 
Q 3634 1759 3634 1313 
Q 3634 634 3220 271 
Q 2806 -91 2034 -91 
Q 1263 -91 848 271 
Q 434 634 434 1313 
Q 434 1759 690 2068 
Q 947 2378 1403 2484 
z
M 1172 3481 
Q 1172 3119 1398 2916 
Q 1625 2713 2034 2713 
Q 2441 2713 2670 2916 
Q 2900 3119 2900 3481 
Q 2900 3844 2670 4047 
Q 2441 4250 2034 4250 
Q 1625 4250 1398 4047 
Q 1172 3844 1172 3481 
z
" id="DejaVuSans-38" transform="scale(0.015625)"/>
       </defs>
       <use xlink:href="#DejaVuSans-30"/>
       <use x="63.623047" xlink:href="#DejaVuSans-2e"/>
       <use x="95.410156" xlink:href="#DejaVuSans-38"/>
      </g>
     </g>
    </g>
    <g id="ytick_6">
     <g id="line2d_9">
      <g>
       <use style="stroke:#000000;stroke-width:0.8;" x="52.160938" xlink:href="#me86e7073f9" y="29.392841"/>
      </g>
     </g>
     <g id="text_9">
      <!-- 1.0 -->
      <g transform="translate(29.257812 33.19206)scale(0.1 -0.1)">
       <use xlink:href="#DejaVuSans-31"/>
       <use x="63.623047" xlink:href="#DejaVuSans-2e"/>
       <use x="95.410156" xlink:href="#DejaVuSans-30"/>
      </g>
     </g>
    </g>
    <g id="text_10">
     <!-- amplitude gain -->
     <g transform="translate(23.178125 137.791562)rotate(-90)scale(0.1 -0.1)">
      <defs>
       <path d="M 2194 1759 
Q 1497 1759 1228 1600 
Q 959 1441 959 1056 
Q 959 750 1161 570 
Q 1363 391 1709 391 
Q 2188 391 2477 730 
Q 2766 1069 2766 1631 
L 2766 1759 
L 2194 1759 
z
M 3341 1997 
L 3341 0 
L 2766 0 
L 2766 531 
Q 2569 213 2275 61 
Q 1981 -91 1556 -91 
Q 1019 -91 701 211 
Q 384 513 384 1019 
Q 384 1609 779 1909 
Q 1175 2209 1959 2209 
L 2766 2209 
L 2766 2266 
Q 2766 2663 2505 2880 
Q 2244 3097 1772 3097 
Q 1472 3097 1187 3025 
Q 903 2953 641 2809 
L 641 3341 
Q 956 3463 1253 3523 
Q 1550 3584 1831 3584 
Q 2591 3584 2966 3190 
Q 3341 2797 3341 1997 
z
" id="DejaVuSans-61" transform="scale(0.015625)"/>
       <path d="M 3328 2828 
Q 3544 3216 3844 3400 
Q 4144 3584 4550 3584 
Q 5097 3584 5394 3201 
Q 5691 2819 5691 2113 
L 5691 0 
L 5113 0 
L 5113 2094 
Q 5113 2597 4934 2840 
Q 4756 3084 4391 3084 
Q 3944 3084 3684 2787 
Q 3425 2491 3425 1978 
L 3425 0 
L 2847 0 
L 2847 2094 
Q 2847 2600 2669 2842 
Q 2491 3084 2119 3084 
Q 1678 3084 1418 2786 
Q 1159 2488 1159 1978 
L 1159 0 
L 581 0 
L 581 3500 
L 1159 3500 
L 1159 2956 
Q 1356 3278 1631 3431 
Q 1906 3584 2284 3584 
Q 2666 3584 2933 3390 
Q 3200 3197 3328 2828 
z
" id="DejaVuSans-6d" transform="scale(0.015625)"/>
       <path d="M 1159 525 
L 1159 -1331 
L 581 -1331 
L 581 3500 
L 1159 3500 
L 1159 2969 
Q 1341 3281 1617 3432 
Q 1894 3584 2278 3584 
Q 2916 3584 3314 3078 
Q 3713 2572 3713 1747 
Q 3713 922 3314 415 
Q 2916 -91 2278 -91 
Q 1894 -91 1617 61 
Q 1341 213 1159 525 
z
M 3116 1747 
Q 3116 2381 2855 2742 
Q 2594 3103 2138 3103 
Q 1681 3103 1420 2742 
Q 1159 2381 1159 1747 
Q 1159 1113 1420 752 
Q 1681 391 2138 391 
Q 2594 391 2855 752 
Q 3116 1113 3116 1747 
z
" id="DejaVuSans-70" transform="scale(0.015625)"/>
       <path d="M 603 4863 
L 1178 4863 
L 1178 0 
L 603 0 
L 603 4863 
z
" id="DejaVuSans-6c" transform="scale(0.015625)"/>
       <path d="M 603 3500 
L 1178 3500 
L 1178 0 
L 603 0 
L 603 3500 
z
M 603 4863 
L 1178 4863 
L 1178 4134 
L 603 4134 
L 603 4863 
z
" id="DejaVuSans-69" transform="scale(0.015625)"/>
       <path d="M 1172 4494 
L 1172 3500 
L 2356 3500 
L 2356 3053 
L 1172 3053 
L 1172 1153 
Q 1172 725 1289 603 
Q 1406 481 1766 481 
L 2356 481 
L 2356 0 
L 1766 0 
Q 1100 0 847 248 
Q 594 497 594 1153 
L 594 3053 
L 172 3053 
L 172 3500 
L 594 3500 
L 594 4494 
L 1172 4494 
z
" id="DejaVuSans-74" transform="scale(0.015625)"/>
       <path d="M 544 1381 
L 544 3500 
L 1119 3500 
L 1119 1403 
Q 1119 906 1312 657 
Q 1506 409 1894 409 
Q 2359 409 2629 706 
Q 2900 1003 2900 1516 
L 2900 3500 
L 3475 3500 
L 3475 0 
L 2900 0 
L 2900 538 
Q 2691 219 2414 64 
Q 2138 -91 1772 -91 
Q 1169 -91 856 284 
Q 544 659 544 1381 
z
M 1991 3584 
L 1991 3584 
z
" id="DejaVuSans-75" transform="scale(0.015625)"/>
       <path d="M 2906 2969 
L 2906 4863 
L 3481 4863 
L 3481 0 
L 2906 0 
L 2906 525 
Q 2725 213 2448 61 
Q 2172 -91 1784 -91 
Q 1150 -91 751 415 
Q 353 922 353 1747 
Q 353 2572 751 3078 
Q 1150 3584 1784 3584 
Q 2172 3584 2448 3432 
Q 2725 3281 2906 2969 
z
M 947 1747 
Q 947 1113 1208 752 
Q 1469 391 1925 391 
Q 2381 391 2643 752 
Q 2906 1113 2906 1747 
Q 2906 2381 2643 2742 
Q 2381 3103 1925 3103 
Q 1469 3103 1208 2742 
Q 947 2381 947 1747 
z
" id="DejaVuSans-64" transform="scale(0.015625)"/>
       <path d="M 3597 1894 
L 3597 1613 
L 953 1613 
Q 991 1019 1311 708 
Q 1631 397 2203 397 
Q 2534 397 2845 478 
Q 3156 559 3463 722 
L 3463 178 
Q 3153 47 2828 -22 
Q 2503 -91 2169 -91 
Q 1331 -91 842 396 
Q 353 884 353 1716 
Q 353 2575 817 3079 
Q 1281 3584 2069 3584 
Q 2775 3584 3186 3129 
Q 3597 2675 3597 1894 
z
M 3022 2063 
Q 3016 2534 2758 2815 
Q 2500 3097 2075 3097 
Q 1594 3097 1305 2825 
Q 1016 2553 972 2059 
L 3022 2063 
z
" id="DejaVuSans-65" transform="scale(0.015625)"/>
       <path id="DejaVuSans-20" transform="scale(0.015625)"/>
       <path d="M 2906 1791 
Q 2906 2416 2648 2759 
Q 2391 3103 1925 3103 
Q 1463 3103 1205 2759 
Q 947 2416 947 1791 
Q 947 1169 1205 825 
Q 1463 481 1925 481 
Q 2391 481 2648 825 
Q 2906 1169 2906 1791 
z
M 3481 434 
Q 3481 -459 3084 -895 
Q 2688 -1331 1869 -1331 
Q 1566 -1331 1297 -1286 
Q 1028 -1241 775 -1147 
L 775 -588 
Q 1028 -725 1275 -790 
Q 1522 -856 1778 -856 
Q 2344 -856 2625 -561 
Q 2906 -266 2906 331 
L 2906 616 
Q 2728 306 2450 153 
Q 2172 0 1784 0 
Q 1141 0 747 490 
Q 353 981 353 1791 
Q 353 2603 747 3093 
Q 1141 3584 1784 3584 
Q 2172 3584 2450 3431 
Q 2728 3278 2906 2969 
L 2906 3500 
L 3481 3500 
L 3481 434 
z
" id="DejaVuSans-67" transform="scale(0.015625)"/>
       <path d="M 3513 2113 
L 3513 0 
L 2938 0 
L 2938 2094 
Q 2938 2591 2744 2837 
Q 2550 3084 2163 3084 
Q 1697 3084 1428 2787 
Q 1159 2491 1159 1978 
L 1159 0 
L 581 0 
L 581 3500 
L 1159 3500 
L 1159 2956 
Q 1366 3272 1645 3428 
Q 1925 3584 2291 3584 
Q 2894 3584 3203 3211 
Q 3513 2838 3513 2113 
z
" id="DejaVuSans-6e" transform="scale(0.015625)"/>
      </defs>
      <use xlink:href="#DejaVuSans-61"/>
      <use x="61.279297" xlink:href="#DejaVuSans-6d"/>
      <use x="158.691406" xlink:href="#DejaVuSans-70"/>
      <use x="222.167969" xlink:href="#DejaVuSans-6c"/>
      <use x="249.951172" xlink:href="#DejaVuSans-69"/>
      <use x="277.734375" xlink:href="#DejaVuSans-74"/>
      <use x="316.943359" xlink:href="#DejaVuSans-75"/>
      <use x="380.322266" xlink:href="#DejaVuSans-64"/>
      <use x="443.798828" xlink:href="#DejaVuSans-65"/>
      <use x="505.322266" xlink:href="#DejaVuSans-20"/>
      <use x="537.109375" xlink:href="#DejaVuSans-67"/>
      <use x="600.585938" xlink:href="#DejaVuSans-61"/>
      <use x="661.865234" xlink:href="#DejaVuSans-69"/>
      <use x="689.648438" xlink:href="#DejaVuSans-6e"/>
     </g>
    </g>
   </g>
   <g id="line2d_10">
    <path clip-path="url(#pacd800f94c)" d="M 57.940631 30.807784 
L 59.108246 32.222727 
L 60.27586 33.63767 
L 61.443475 35.052614 
L 62.61109 36.467557 
L 63.778705 37.8825 
L 64.94632 39.297443 
L 66.113935 40.712386 
L 67.281549 42.12733 
L 68.449164 43.542273 
L 69.616779 44.957216 
L 70.784394 46.372159 
L 71.952009 47.787102 
L 73.119623 49.202045 
L 74.287238 50.616989 
L 75.454853 52.031932 
L 76.622468 53.446875 
L 77.790083 54.861818 
L 78.957697 56.276761 
L 80.125312 57.691705 
L 81.292927 59.106648 
L 82.460542 60.521591 
L 83.628157 61.936534 
L 84.795772 63.351477 
L 85.963386 64.76642 
L 87.131001 66.181364 
L 88.298616 67.596307 
L 89.466231 69.01125 
L 90.633846 70.426193 
L 91.80146 71.841136 
L 92.969075 73.25608 
L 94.13669 74.671023 
L 95.304305 76.085966 
L 96.47192 77.500909 
L 97.639534 78.915852 
L 98.807149 80.330795 
L 99.974764 81.745739 
L 101.142379 83.160682 
L 102.309994 84.575625 
L 103.477609 85.990568 
L 104.645223 87.405511 
L 105.812838 88.820455 
L 106.980453 90.235398 
L 108.148068 91.650341 
L 109.315683 93.065284 
L 110.483297 94.480227 
L 111.650912 95.89517 
L 112.818527 97.310114 
L 113.986142 98.725057 
L 115.153757 100.14 
L 116.321371 101.554943 
L 117.488986 102.969886 
L 118.656601 104.38483 
L 119.824216 105.799773 
L 120.991831 107.214716 
L 122.159446 108.629659 
L 123.32706 110.044602 
L 124.494675 111.459545 
L 125.66229 112.874489 
L 126.829905 114.289432 
L 127.99752 115.704375 
L 129.165134 117.119318 
L 130.332749 118.534261 
L 131.500364 119.949205 
L 132.667979 121.364148 
L 133.835594 122.779091 
L 135.003208 124.194034 
L 136.170823 125.608977 
L 137.338438 127.02392 
L 138.506053 128.438864 
L 139.673668 129.853807 
L 140.841283 131.26875 
L 142.008897 132.683693 
L 143.176512 134.098636 
L 144.344127 135.51358 
L 145.511742 136.928523 
L 146.679357 138.343466 
L 147.846971 139.758409 
L 149.014586 141.173352 
L 150.182201 142.588295 
L 151.349816 144.003239 
L 152.517431 145.418182 
L 153.685045 146.833125 
L 154.85266 148.248068 
L 156.020275 149.663011 
L 157.18789 151.077955 
L 158.355505 152.492898 
L 159.52312 153.907841 
L 160.690734 155.322784 
L 161.858349 156.737727 
L 163.025964 158.15267 
L 164.193579 159.567614 
L 165.361194 160.982557 
L 166.528808 162.3975 
L 167.696423 163.812443 
L 168.864038 165.227386 
L 170.031653 166.64233 
L 171.199268 168.057273 
L 172.366882 169.472216 
L 173.534497 170.887159 
" style="fill:none;stroke:#1f77b4;stroke-linecap:square;stroke-width:1.5;"/>
   </g>
   <g id="line2d_11">
    <path clip-path="url(#pacd800f94c)" d="M 57.940631 169.472216 
L 59.108246 168.057273 
L 60.27586 166.64233 
L 61.443475 165.227386 
L 62.61109 163.812443 
L 63.778705 162.3975 
L 64.94632 160.982557 
L 66.113935 159.567614 
L 67.281549 158.15267 
L 68.449164 156.737727 
L 69.616779 155.322784 
L 70.784394 153.907841 
L 71.952009 152.492898 
L 73.119623 151.077955 
L 74.287238 149.663011 
L 75.454853 148.248068 
L 76.622468 146.833125 
L 77.790083 145.418182 
L 78.957697 144.003239 
L 80.125312 142.588295 
L 81.292927 141.173352 
L 82.460542 139.758409 
L 83.628157 138.343466 
L 84.795772 136.928523 
L 85.963386 135.51358 
L 87.131001 134.098636 
L 88.298616 132.683693 
L 89.466231 131.26875 
L 90.633846 129.853807 
L 91.80146 128.438864 
L 92.969075 127.02392 
L 94.13669 125.608977 
L 95.304305 124.194034 
L 96.47192 122.779091 
L 97.639534 121.364148 
L 98.807149 119.949205 
L 99.974764 118.534261 
L 101.142379 117.119318 
L 102.309994 115.704375 
L 103.477609 114.289432 
L 104.645223 112.874489 
L 105.812838 111.459545 
L 106.980453 110.044602 
L 108.148068 108.629659 
L 109.315683 107.214716 
L 110.483297 105.799773 
L 111.650912 104.38483 
L 112.818527 102.969886 
L 113.986142 101.554943 
L 115.153757 100.14 
L 116.321371 98.725057 
L 117.488986 97.310114 
L 118.656601 95.89517 
L 119.824216 94.480227 
L 120.991831 93.065284 
L 122.159446 91.650341 
L 123.32706 90.235398 
L 124.494675 88.820455 
L 125.66229 87.405511 
L 126.829905 85.990568 
L 127.99752 84.575625 
L 129.165134 83.160682 
L 130.332749 81.745739 
L 131.500364 80.330795 
L 132.667979 78.915852 
L 133.835594 77.500909 
L 135.003208 76.085966 
L 136.170823 74.671023 
L 137.338438 73.25608 
L 138.506053 71.841136 
L 139.673668 70.426193 
L 140.841283 69.01125 
L 142.008897 67.596307 
L 143.176512 66.181364 
L 144.344127 64.76642 
L 145.511742 63.351477 
L 146.679357 61.936534 
L 147.846971 60.521591 
L 149.014586 59.106648 
L 150.182201 57.691705 
L 151.349816 56.276761 
L 152.517431 54.861818 
L 153.685045 53.446875 
L 154.85266 52.031932 
L 156.020275 50.616989 
L 157.18789 49.202045 
L 158.355505 47.787102 
L 159.52312 46.372159 
L 160.690734 44.957216 
L 161.858349 43.542273 
L 163.025964 42.12733 
L 164.193579 40.712386 
L 165.361194 39.297443 
L 166.528808 37.8825 
L 167.696423 36.467557 
L 168.864038 35.052614 
L 170.031653 33.63767 
L 171.199268 32.222727 
L 172.366882 30.807784 
L 173.534497 29.392841 
" style="fill:none;stroke:#ff7f0e;stroke-linecap:square;stroke-width:1.5;"/>
   </g>
   <g id="patch_3">
    <path d="M 52.160938 177.961875 
L 52.160938 22.318125 
" style="fill:none;stroke:#000000;stroke-linecap:square;stroke-linejoin:miter;stroke-width:0.8;"/>
   </g>
   <g id="patch_4">
    <path d="M 179.314191 177.961875 
L 179.314191 22.318125 
" style="fill:none;stroke:#000000;stroke-linecap:square;stroke-linejoin:miter;stroke-width:0.8;"/>
   </g>
   <g id="patch_5">
    <path d="M 52.160938 177.961875 
L 179.314191 177.961875 
" style="fill:none;stroke:#000000;stroke-linecap:square;stroke-linejoin:miter;stroke-width:0.8;"/>
   </g>
   <g id="patch_6">
    <path d="M 52.160938 22.318125 
L 179.314191 22.318125 
" style="fill:none;stroke:#000000;stroke-linecap:square;stroke-linejoin:miter;stroke-width:0.8;"/>
   </g>
   <g id="text_11">
    <!-- linear panning -->
    <g transform="translate(72.489752 16.318125)scale(0.12 -0.12)">
     <defs>
      <path d="M 2631 2963 
Q 2534 3019 2420 3045 
Q 2306 3072 2169 3072 
Q 1681 3072 1420 2755 
Q 1159 2438 1159 1844 
L 1159 0 
L 581 0 
L 581 3500 
L 1159 3500 
L 1159 2956 
Q 1341 3275 1631 3429 
Q 1922 3584 2338 3584 
Q 2397 3584 2469 3576 
Q 2541 3569 2628 3553 
L 2631 2963 
z
" id="DejaVuSans-72" transform="scale(0.015625)"/>
     </defs>
     <use xlink:href="#DejaVuSans-6c"/>
     <use x="27.783203" xlink:href="#DejaVuSans-69"/>
     <use x="55.566406" xlink:href="#DejaVuSans-6e"/>
     <use x="118.945312" xlink:href="#DejaVuSans-65"/>
     <use x="180.46875" xlink:href="#DejaVuSans-61"/>
     <use x="241.748047" xlink:href="#DejaVuSans-72"/>
     <use x="282.861328" xlink:href="#DejaVuSans-20"/>
     <use x="314.648438" xlink:href="#DejaVuSans-70"/>
     <use x="378.125" xlink:href="#DejaVuSans-61"/>
     <use x="439.404297" xlink:href="#DejaVuSans-6e"/>
     <use x="502.783203" xlink:href="#DejaVuSans-6e"/>
     <use x="566.162109" xlink:href="#DejaVuSans-69"/>
     <use x="593.945312" xlink:href="#DejaVuSans-6e"/>
     <use x="657.324219" xlink:href="#DejaVuSans-67"/>
    </g>
   </g>
   <g id="legend_1">
    <g id="patch_7">
     <path d="M 89.287564 172.961875 
L 142.187564 172.961875 
Q 144.187564 172.961875 144.187564 170.961875 
L 144.187564 137.161875 
Q 144.187564 135.161875 142.187564 135.161875 
L 89.287564 135.161875 
Q 87.287564 135.161875 87.287564 137.161875 
L 87.287564 170.961875 
Q 87.287564 172.961875 89.287564 172.961875 
z
" style="fill:#ffffff;opacity:0.8;stroke:#cccccc;stroke-linejoin:miter;"/>
    </g>
    <g id="line2d_12">
     <path d="M 91.287564 145.982187 
L 111.287564 145.982187 
" style="fill:none;stroke:#1f77b4;stroke-linecap:square;stroke-width:1.5;"/>
    </g>
    <g id="line2d_13"/>
    <g id="text_12">
     <!-- L($\dot{\theta}$) -->
     <g transform="translate(119.287564 149.482187)scale(0.1 -0.1)">
      <defs>
       <path d="M 628 4666 
L 1259 4666 
L 1259 531 
L 3531 531 
L 3531 0 
L 628 0 
L 628 4666 
z
" id="DejaVuSans-4c" transform="scale(0.015625)"/>
       <path d="M 1984 4856 
Q 1566 4138 1362 3434 
Q 1159 2731 1159 2009 
Q 1159 1288 1364 580 
Q 1569 -128 1984 -844 
L 1484 -844 
Q 1016 -109 783 600 
Q 550 1309 550 2009 
Q 550 2706 781 3412 
Q 1013 4119 1484 4856 
L 1984 4856 
z
" id="DejaVuSans-28" transform="scale(0.015625)"/>
       <path d="M -1894 4863 
L -1319 4863 
L -1319 4134 
L -1894 4134 
L -1894 4863 
z
M -1600 3584 
L -1600 3584 
z
" id="DejaVuSans-307" transform="scale(0.015625)"/>
       <path d="M 2913 2219 
L 925 2219 
Q 791 1284 928 888 
Q 1100 400 1566 400 
Q 2034 400 2391 891 
Q 2703 1322 2913 2219 
z
M 3009 2750 
Q 3094 3638 2984 3950 
Q 2813 4444 2353 4444 
Q 1875 4444 1525 3956 
Q 1250 3563 1034 2750 
L 3009 2750 
z
M 2444 4913 
Q 3194 4913 3494 4250 
Q 3794 3591 3566 2422 
Q 3341 1256 2781 594 
Q 2225 -72 1475 -72 
Q 722 -72 425 594 
Q 128 1256 353 2422 
Q 581 3591 1134 4250 
Q 1691 4913 2444 4913 
z
" id="DejaVuSans-Oblique-3b8" transform="scale(0.015625)"/>
       <path d="M 513 4856 
L 1013 4856 
Q 1481 4119 1714 3412 
Q 1947 2706 1947 2009 
Q 1947 1309 1714 600 
Q 1481 -109 1013 -844 
L 513 -844 
Q 928 -128 1133 580 
Q 1338 1288 1338 2009 
Q 1338 2731 1133 3434 
Q 928 4138 513 4856 
z
" id="DejaVuSans-29" transform="scale(0.015625)"/>
      </defs>
      <use transform="translate(0 0.75)" xlink:href="#DejaVuSans-4c"/>
      <use transform="translate(55.712891 0.75)" xlink:href="#DejaVuSans-28"/>
      <use transform="translate(157.615723 34.015625)" xlink:href="#DejaVuSans-307"/>
      <use transform="translate(94.726562 0.75)" xlink:href="#DejaVuSans-Oblique-3b8"/>
      <use transform="translate(155.908203 0.75)" xlink:href="#DejaVuSans-29"/>
     </g>
    </g>
    <g id="line2d_14">
     <path d="M 91.287564 163.382187 
L 111.287564 163.382187 
" style="fill:none;stroke:#ff7f0e;stroke-linecap:square;stroke-width:1.5;"/>
    </g>
    <g id="line2d_15"/>
    <g id="text_13">
     <!-- R($\dot{\theta}$) -->
     <g transform="translate(119.287564 166.882187)scale(0.1 -0.1)">
      <defs>
       <path d="M 2841 2188 
Q 3044 2119 3236 1894 
Q 3428 1669 3622 1275 
L 4263 0 
L 3584 0 
L 2988 1197 
Q 2756 1666 2539 1819 
Q 2322 1972 1947 1972 
L 1259 1972 
L 1259 0 
L 628 0 
L 628 4666 
L 2053 4666 
Q 2853 4666 3247 4331 
Q 3641 3997 3641 3322 
Q 3641 2881 3436 2590 
Q 3231 2300 2841 2188 
z
M 1259 4147 
L 1259 2491 
L 2053 2491 
Q 2509 2491 2742 2702 
Q 2975 2913 2975 3322 
Q 2975 3731 2742 3939 
Q 2509 4147 2053 4147 
L 1259 4147 
z
" id="DejaVuSans-52" transform="scale(0.015625)"/>
      </defs>
      <use transform="translate(0 0.75)" xlink:href="#DejaVuSans-52"/>
      <use transform="translate(69.482422 0.75)" xlink:href="#DejaVuSans-28"/>
      <use transform="translate(171.385254 34.015625)" xlink:href="#DejaVuSans-307"/>
      <use transform="translate(108.496094 0.75)" xlink:href="#DejaVuSans-Oblique-3b8"/>
      <use transform="translate(169.677734 0.75)" xlink:href="#DejaVuSans-29"/>
     </g>
    </g>
   </g>
  </g>
  <g id="axes_2">
   <g id="patch_8">
    <path d="M 223.894271 177.961875 
L 351.047524 177.961875 
L 351.047524 22.318125 
L 223.894271 22.318125 
z
" style="fill:#ffffff;"/>
   </g>
   <g id="matplotlib.axis_3">
    <g id="xtick_4">
     <g id="line2d_16">
      <g>
       <use style="stroke:#000000;stroke-width:0.8;" x="228.506349" xlink:href="#m716874c67d" y="177.961875"/>
      </g>
     </g>
     <g id="text_14">
      <!-- 0.0 -->
      <g transform="translate(220.554787 192.560312)scale(0.1 -0.1)">
       <use xlink:href="#DejaVuSans-30"/>
       <use x="63.623047" xlink:href="#DejaVuSans-2e"/>
       <use x="95.410156" xlink:href="#DejaVuSans-30"/>
      </g>
     </g>
    </g>
    <g id="xtick_5">
     <g id="line2d_17">
      <g>
       <use style="stroke:#000000;stroke-width:0.8;" x="286.88709" xlink:href="#m716874c67d" y="177.961875"/>
      </g>
     </g>
     <g id="text_15">
      <!-- 0.5 -->
      <g transform="translate(278.935527 192.560312)scale(0.1 -0.1)">
       <use xlink:href="#DejaVuSans-30"/>
       <use x="63.623047" xlink:href="#DejaVuSans-2e"/>
       <use x="95.410156" xlink:href="#DejaVuSans-35"/>
      </g>
     </g>
    </g>
    <g id="xtick_6">
     <g id="line2d_18">
      <g>
       <use style="stroke:#000000;stroke-width:0.8;" x="345.267831" xlink:href="#m716874c67d" y="177.961875"/>
      </g>
     </g>
     <g id="text_16">
      <!-- 1.0 -->
      <g transform="translate(337.316268 192.560312)scale(0.1 -0.1)">
       <use xlink:href="#DejaVuSans-31"/>
       <use x="63.623047" xlink:href="#DejaVuSans-2e"/>
       <use x="95.410156" xlink:href="#DejaVuSans-30"/>
      </g>
     </g>
    </g>
    <g id="text_17">
     <!-- panning value ($\dot{\pi}$/2) -->
     <g transform="translate(238.720897 207.44)scale(0.1 -0.1)">
      <defs>
       <path d="M 191 3500 
L 800 3500 
L 1894 563 
L 2988 3500 
L 3597 3500 
L 2284 0 
L 1503 0 
L 191 3500 
z
" id="DejaVuSans-76" transform="scale(0.015625)"/>
       <path d="M 584 3500 
L 3938 3500 
L 3825 2925 
L 3384 2925 
L 2966 775 
Q 2922 550 2981 450 
Q 3038 353 3209 353 
Q 3256 353 3325 363 
Q 3397 369 3419 372 
L 3338 -44 
Q 3222 -84 3103 -103 
Q 2981 -122 2866 -122 
Q 2491 -122 2388 81 
Q 2284 288 2391 838 
L 2797 2925 
L 1506 2925 
L 938 0 
L 350 0 
L 919 2925 
L 472 2925 
L 584 3500 
z
" id="DejaVuSans-Oblique-3c0" transform="scale(0.015625)"/>
       <path d="M 1625 4666 
L 2156 4666 
L 531 -594 
L 0 -594 
L 1625 4666 
z
" id="DejaVuSans-2f" transform="scale(0.015625)"/>
      </defs>
      <use transform="translate(0 0.828125)" xlink:href="#DejaVuSans-70"/>
      <use transform="translate(63.476562 0.828125)" xlink:href="#DejaVuSans-61"/>
      <use transform="translate(124.755859 0.828125)" xlink:href="#DejaVuSans-6e"/>
      <use transform="translate(188.134766 0.828125)" xlink:href="#DejaVuSans-6e"/>
      <use transform="translate(251.513672 0.828125)" xlink:href="#DejaVuSans-69"/>
      <use transform="translate(279.296875 0.828125)" xlink:href="#DejaVuSans-6e"/>
      <use transform="translate(342.675781 0.828125)" xlink:href="#DejaVuSans-67"/>
      <use transform="translate(406.152344 0.828125)" xlink:href="#DejaVuSans-20"/>
      <use transform="translate(437.939453 0.828125)" xlink:href="#DejaVuSans-76"/>
      <use transform="translate(497.119141 0.828125)" xlink:href="#DejaVuSans-61"/>
      <use transform="translate(558.398438 0.828125)" xlink:href="#DejaVuSans-6c"/>
      <use transform="translate(586.181641 0.828125)" xlink:href="#DejaVuSans-75"/>
      <use transform="translate(649.560547 0.828125)" xlink:href="#DejaVuSans-65"/>
      <use transform="translate(711.083984 0.828125)" xlink:href="#DejaVuSans-20"/>
      <use transform="translate(742.871094 0.828125)" xlink:href="#DejaVuSans-28"/>
      <use transform="translate(844.529785 12.015625)" xlink:href="#DejaVuSans-307"/>
      <use transform="translate(781.884766 0.828125)" xlink:href="#DejaVuSans-Oblique-3c0"/>
      <use transform="translate(842.089844 0.828125)" xlink:href="#DejaVuSans-2f"/>
      <use transform="translate(872.15625 0.828125)" xlink:href="#DejaVuSans-32"/>
      <use transform="translate(935.779297 0.828125)" xlink:href="#DejaVuSans-29"/>
     </g>
    </g>
   </g>
   <g id="matplotlib.axis_4">
    <g id="ytick_7">
     <g id="line2d_19">
      <g>
       <use style="stroke:#000000;stroke-width:0.8;" x="223.894271" xlink:href="#me86e7073f9" y="170.887159"/>
      </g>
     </g>
     <g id="text_18">
      <!-- 0.0 -->
      <g transform="translate(200.991146 174.686378)scale(0.1 -0.1)">
       <use xlink:href="#DejaVuSans-30"/>
       <use x="63.623047" xlink:href="#DejaVuSans-2e"/>
       <use x="95.410156" xlink:href="#DejaVuSans-30"/>
      </g>
     </g>
    </g>
    <g id="ytick_8">
     <g id="line2d_20">
      <g>
       <use style="stroke:#000000;stroke-width:0.8;" x="223.894271" xlink:href="#me86e7073f9" y="142.588295"/>
      </g>
     </g>
     <g id="text_19">
      <!-- 0.2 -->
      <g transform="translate(200.991146 146.387514)scale(0.1 -0.1)">
       <use xlink:href="#DejaVuSans-30"/>
       <use x="63.623047" xlink:href="#DejaVuSans-2e"/>
       <use x="95.410156" xlink:href="#DejaVuSans-32"/>
      </g>
     </g>
    </g>
    <g id="ytick_9">
     <g id="line2d_21">
      <g>
       <use style="stroke:#000000;stroke-width:0.8;" x="223.894271" xlink:href="#me86e7073f9" y="114.289432"/>
      </g>
     </g>
     <g id="text_20">
      <!-- 0.4 -->
      <g transform="translate(200.991146 118.088651)scale(0.1 -0.1)">
       <use xlink:href="#DejaVuSans-30"/>
       <use x="63.623047" xlink:href="#DejaVuSans-2e"/>
       <use x="95.410156" xlink:href="#DejaVuSans-34"/>
      </g>
     </g>
    </g>
    <g id="ytick_10">
     <g id="line2d_22">
      <g>
       <use style="stroke:#000000;stroke-width:0.8;" x="223.894271" xlink:href="#me86e7073f9" y="85.990568"/>
      </g>
     </g>
     <g id="text_21">
      <!-- 0.6 -->
      <g transform="translate(200.991146 89.789787)scale(0.1 -0.1)">
       <use xlink:href="#DejaVuSans-30"/>
       <use x="63.623047" xlink:href="#DejaVuSans-2e"/>
       <use x="95.410156" xlink:href="#DejaVuSans-36"/>
      </g>
     </g>
    </g>
    <g id="ytick_11">
     <g id="line2d_23">
      <g>
       <use style="stroke:#000000;stroke-width:0.8;" x="223.894271" xlink:href="#me86e7073f9" y="57.691705"/>
      </g>
     </g>
     <g id="text_22">
      <!-- 0.8 -->
      <g transform="translate(200.991146 61.490923)scale(0.1 -0.1)">
       <use xlink:href="#DejaVuSans-30"/>
       <use x="63.623047" xlink:href="#DejaVuSans-2e"/>
       <use x="95.410156" xlink:href="#DejaVuSans-38"/>
      </g>
     </g>
    </g>
    <g id="ytick_12">
     <g id="line2d_24">
      <g>
       <use style="stroke:#000000;stroke-width:0.8;" x="223.894271" xlink:href="#me86e7073f9" y="29.392841"/>
      </g>
     </g>
     <g id="text_23">
      <!-- 1.0 -->
      <g transform="translate(200.991146 33.19206)scale(0.1 -0.1)">
       <use xlink:href="#DejaVuSans-31"/>
       <use x="63.623047" xlink:href="#DejaVuSans-2e"/>
       <use x="95.410156" xlink:href="#DejaVuSans-30"/>
      </g>
     </g>
    </g>
   </g>
   <g id="line2d_25">
    <path clip-path="url(#pec459c991c)" d="M 229.673964 29.410297 
L 230.841579 29.46266 
L 232.009194 29.549917 
L 233.176809 29.672048 
L 234.344423 29.829021 
L 235.512038 30.020798 
L 236.679653 30.247331 
L 237.847268 30.508566 
L 239.014883 30.804437 
L 240.182497 31.134871 
L 241.350112 31.499787 
L 242.517727 31.899094 
L 243.685342 32.332695 
L 244.852957 32.800482 
L 246.020572 33.30234 
L 247.188186 33.838145 
L 248.355801 34.407765 
L 249.523416 35.011059 
L 250.691031 35.647878 
L 251.858646 36.318066 
L 253.02626 37.021456 
L 254.193875 37.757876 
L 255.36149 38.527144 
L 256.529105 39.329069 
L 257.69672 40.163455 
L 258.864334 41.030094 
L 260.031949 41.928774 
L 261.199564 42.859272 
L 262.367179 43.82136 
L 263.534794 44.814798 
L 264.702409 45.839344 
L 265.870023 46.894743 
L 267.037638 47.980735 
L 268.205253 49.097053 
L 269.372868 50.24342 
L 270.540483 51.419555 
L 271.708097 52.625166 
L 272.875712 53.859957 
L 274.043327 55.123623 
L 275.210942 56.415851 
L 276.378557 57.736324 
L 277.546171 59.084714 
L 278.713786 60.460691 
L 279.881401 61.863913 
L 281.049016 63.294035 
L 282.216631 64.750705 
L 283.384246 66.233562 
L 284.55186 67.74224 
L 285.719475 69.276368 
L 286.88709 70.835567 
L 288.054705 72.419452 
L 289.22232 74.027633 
L 290.389934 75.659712 
L 291.557549 77.315288 
L 292.725164 78.99395 
L 293.892779 80.695286 
L 295.060394 82.418876 
L 296.228008 84.164293 
L 297.395623 85.931109 
L 298.563238 87.718886 
L 299.730853 89.527183 
L 300.898468 91.355555 
L 302.066083 93.20355 
L 303.233697 95.070712 
L 304.401312 96.956581 
L 305.568927 98.860691 
L 306.736542 100.782573 
L 307.904157 102.721751 
L 309.071771 104.677749 
L 310.239386 106.650083 
L 311.407001 108.638266 
L 312.574616 110.641809 
L 313.742231 112.660215 
L 314.909845 114.692989 
L 316.07746 116.739628 
L 317.245075 118.799627 
L 318.41269 120.872477 
L 319.580305 122.957668 
L 320.74792 125.054685 
L 321.915534 127.16301 
L 323.083149 129.282124 
L 324.250764 131.411503 
L 325.418379 133.550622 
L 326.585994 135.698953 
L 327.753608 137.855966 
L 328.921223 140.02113 
L 330.088838 142.193909 
L 331.256453 144.373768 
L 332.424068 146.560168 
L 333.591683 148.752571 
L 334.759297 150.950435 
L 335.926912 153.153219 
L 337.094527 155.360378 
L 338.262142 157.571367 
L 339.429757 159.785643 
L 340.597371 162.002657 
L 341.764986 164.221864 
L 342.932601 166.442715 
L 344.100216 168.664663 
L 345.267831 170.887159 
" style="fill:none;stroke:#1f77b4;stroke-linecap:square;stroke-width:1.5;"/>
   </g>
   <g id="line2d_26">
    <path clip-path="url(#pec459c991c)" d="M 229.673964 168.664663 
L 230.841579 166.442715 
L 232.009194 164.221864 
L 233.176809 162.002657 
L 234.344423 159.785643 
L 235.512038 157.571367 
L 236.679653 155.360378 
L 237.847268 153.153219 
L 239.014883 150.950435 
L 240.182497 148.752571 
L 241.350112 146.560168 
L 242.517727 144.373768 
L 243.685342 142.193909 
L 244.852957 140.02113 
L 246.020572 137.855966 
L 247.188186 135.698953 
L 248.355801 133.550622 
L 249.523416 131.411503 
L 250.691031 129.282124 
L 251.858646 127.16301 
L 253.02626 125.054685 
L 254.193875 122.957668 
L 255.36149 120.872477 
L 256.529105 118.799627 
L 257.69672 116.739628 
L 258.864334 114.692989 
L 260.031949 112.660215 
L 261.199564 110.641809 
L 262.367179 108.638266 
L 263.534794 106.650083 
L 264.702409 104.677749 
L 265.870023 102.721751 
L 267.037638 100.782573 
L 268.205253 98.860691 
L 269.372868 96.956581 
L 270.540483 95.070712 
L 271.708097 93.20355 
L 272.875712 91.355555 
L 274.043327 89.527183 
L 275.210942 87.718886 
L 276.378557 85.931109 
L 277.546171 84.164293 
L 278.713786 82.418876 
L 279.881401 80.695286 
L 281.049016 78.99395 
L 282.216631 77.315288 
L 283.384246 75.659712 
L 284.55186 74.027633 
L 285.719475 72.419452 
L 286.88709 70.835567 
L 288.054705 69.276368 
L 289.22232 67.74224 
L 290.389934 66.233562 
L 291.557549 64.750705 
L 292.725164 63.294035 
L 293.892779 61.863913 
L 295.060394 60.460691 
L 296.228008 59.084714 
L 297.395623 57.736324 
L 298.563238 56.415851 
L 299.730853 55.123623 
L 300.898468 53.859957 
L 302.066083 52.625166 
L 303.233697 51.419555 
L 304.401312 50.24342 
L 305.568927 49.097053 
L 306.736542 47.980735 
L 307.904157 46.894743 
L 309.071771 45.839344 
L 310.239386 44.814798 
L 311.407001 43.82136 
L 312.574616 42.859272 
L 313.742231 41.928774 
L 314.909845 41.030094 
L 316.07746 40.163455 
L 317.245075 39.329069 
L 318.41269 38.527144 
L 319.580305 37.757876 
L 320.74792 37.021456 
L 321.915534 36.318066 
L 323.083149 35.647878 
L 324.250764 35.011059 
L 325.418379 34.407765 
L 326.585994 33.838145 
L 327.753608 33.30234 
L 328.921223 32.800482 
L 330.088838 32.332695 
L 331.256453 31.899094 
L 332.424068 31.499787 
L 333.591683 31.134871 
L 334.759297 30.804437 
L 335.926912 30.508566 
L 337.094527 30.247331 
L 338.262142 30.020798 
L 339.429757 29.829021 
L 340.597371 29.672048 
L 341.764986 29.549917 
L 342.932601 29.46266 
L 344.100216 29.410297 
L 345.267831 29.392841 
" style="fill:none;stroke:#ff7f0e;stroke-linecap:square;stroke-width:1.5;"/>
   </g>
   <g id="patch_9">
    <path d="M 223.894271 177.961875 
L 223.894271 22.318125 
" style="fill:none;stroke:#000000;stroke-linecap:square;stroke-linejoin:miter;stroke-width:0.8;"/>
   </g>
   <g id="patch_10">
    <path d="M 351.047524 177.961875 
L 351.047524 22.318125 
" style="fill:none;stroke:#000000;stroke-linecap:square;stroke-linejoin:miter;stroke-width:0.8;"/>
   </g>
   <g id="patch_11">
    <path d="M 223.894271 177.961875 
L 351.047524 177.961875 
" style="fill:none;stroke:#000000;stroke-linecap:square;stroke-linejoin:miter;stroke-width:0.8;"/>
   </g>
   <g id="patch_12">
    <path d="M 223.894271 22.318125 
L 351.047524 22.318125 
" style="fill:none;stroke:#000000;stroke-linecap:square;stroke-linejoin:miter;stroke-width:0.8;"/>
   </g>
   <g id="text_24">
    <!-- constant power panning -->
    <g transform="translate(214.65996 16.318125)scale(0.12 -0.12)">
     <defs>
      <path d="M 3122 3366 
L 3122 2828 
Q 2878 2963 2633 3030 
Q 2388 3097 2138 3097 
Q 1578 3097 1268 2742 
Q 959 2388 959 1747 
Q 959 1106 1268 751 
Q 1578 397 2138 397 
Q 2388 397 2633 464 
Q 2878 531 3122 666 
L 3122 134 
Q 2881 22 2623 -34 
Q 2366 -91 2075 -91 
Q 1284 -91 818 406 
Q 353 903 353 1747 
Q 353 2603 823 3093 
Q 1294 3584 2113 3584 
Q 2378 3584 2631 3529 
Q 2884 3475 3122 3366 
z
" id="DejaVuSans-63" transform="scale(0.015625)"/>
      <path d="M 1959 3097 
Q 1497 3097 1228 2736 
Q 959 2375 959 1747 
Q 959 1119 1226 758 
Q 1494 397 1959 397 
Q 2419 397 2687 759 
Q 2956 1122 2956 1747 
Q 2956 2369 2687 2733 
Q 2419 3097 1959 3097 
z
M 1959 3584 
Q 2709 3584 3137 3096 
Q 3566 2609 3566 1747 
Q 3566 888 3137 398 
Q 2709 -91 1959 -91 
Q 1206 -91 779 398 
Q 353 888 353 1747 
Q 353 2609 779 3096 
Q 1206 3584 1959 3584 
z
" id="DejaVuSans-6f" transform="scale(0.015625)"/>
      <path d="M 2834 3397 
L 2834 2853 
Q 2591 2978 2328 3040 
Q 2066 3103 1784 3103 
Q 1356 3103 1142 2972 
Q 928 2841 928 2578 
Q 928 2378 1081 2264 
Q 1234 2150 1697 2047 
L 1894 2003 
Q 2506 1872 2764 1633 
Q 3022 1394 3022 966 
Q 3022 478 2636 193 
Q 2250 -91 1575 -91 
Q 1294 -91 989 -36 
Q 684 19 347 128 
L 347 722 
Q 666 556 975 473 
Q 1284 391 1588 391 
Q 1994 391 2212 530 
Q 2431 669 2431 922 
Q 2431 1156 2273 1281 
Q 2116 1406 1581 1522 
L 1381 1569 
Q 847 1681 609 1914 
Q 372 2147 372 2553 
Q 372 3047 722 3315 
Q 1072 3584 1716 3584 
Q 2034 3584 2315 3537 
Q 2597 3491 2834 3397 
z
" id="DejaVuSans-73" transform="scale(0.015625)"/>
      <path d="M 269 3500 
L 844 3500 
L 1563 769 
L 2278 3500 
L 2956 3500 
L 3675 769 
L 4391 3500 
L 4966 3500 
L 4050 0 
L 3372 0 
L 2619 2869 
L 1863 0 
L 1184 0 
L 269 3500 
z
" id="DejaVuSans-77" transform="scale(0.015625)"/>
     </defs>
     <use xlink:href="#DejaVuSans-63"/>
     <use x="54.980469" xlink:href="#DejaVuSans-6f"/>
     <use x="116.162109" xlink:href="#DejaVuSans-6e"/>
     <use x="179.541016" xlink:href="#DejaVuSans-73"/>
     <use x="231.640625" xlink:href="#DejaVuSans-74"/>
     <use x="270.849609" xlink:href="#DejaVuSans-61"/>
     <use x="332.128906" xlink:href="#DejaVuSans-6e"/>
     <use x="395.507812" xlink:href="#DejaVuSans-74"/>
     <use x="434.716797" xlink:href="#DejaVuSans-20"/>
     <use x="466.503906" xlink:href="#DejaVuSans-70"/>
     <use x="529.980469" xlink:href="#DejaVuSans-6f"/>
     <use x="591.162109" xlink:href="#DejaVuSans-77"/>
     <use x="672.949219" xlink:href="#DejaVuSans-65"/>
     <use x="734.472656" xlink:href="#DejaVuSans-72"/>
     <use x="775.585938" xlink:href="#DejaVuSans-20"/>
     <use x="807.373047" xlink:href="#DejaVuSans-70"/>
     <use x="870.849609" xlink:href="#DejaVuSans-61"/>
     <use x="932.128906" xlink:href="#DejaVuSans-6e"/>
     <use x="995.507812" xlink:href="#DejaVuSans-6e"/>
     <use x="1058.886719" xlink:href="#DejaVuSans-69"/>
     <use x="1086.669922" xlink:href="#DejaVuSans-6e"/>
     <use x="1150.048828" xlink:href="#DejaVuSans-67"/>
    </g>
   </g>
  </g>
  <g id="axes_3">
   <g id="patch_13">
    <path d="M 395.627604 177.961875 
L 522.780857 177.961875 
L 522.780857 22.318125 
L 395.627604 22.318125 
z
" style="fill:#ffffff;"/>
   </g>
   <g id="matplotlib.axis_5">
    <g id="xtick_7">
     <g id="line2d_27">
      <g>
       <use style="stroke:#000000;stroke-width:0.8;" x="400.239683" xlink:href="#m716874c67d" y="177.961875"/>
      </g>
     </g>
     <g id="text_25">
      <!-- 0.0 -->
      <g transform="translate(392.28812 192.560312)scale(0.1 -0.1)">
       <use xlink:href="#DejaVuSans-30"/>
       <use x="63.623047" xlink:href="#DejaVuSans-2e"/>
       <use x="95.410156" xlink:href="#DejaVuSans-30"/>
      </g>
     </g>
    </g>
    <g id="xtick_8">
     <g id="line2d_28">
      <g>
       <use style="stroke:#000000;stroke-width:0.8;" x="458.620423" xlink:href="#m716874c67d" y="177.961875"/>
      </g>
     </g>
     <g id="text_26">
      <!-- 0.5 -->
      <g transform="translate(450.668861 192.560312)scale(0.1 -0.1)">
       <use xlink:href="#DejaVuSans-30"/>
       <use x="63.623047" xlink:href="#DejaVuSans-2e"/>
       <use x="95.410156" xlink:href="#DejaVuSans-35"/>
      </g>
     </g>
    </g>
    <g id="xtick_9">
     <g id="line2d_29">
      <g>
       <use style="stroke:#000000;stroke-width:0.8;" x="517.001164" xlink:href="#m716874c67d" y="177.961875"/>
      </g>
     </g>
     <g id="text_27">
      <!-- 1.0 -->
      <g transform="translate(509.049601 192.560312)scale(0.1 -0.1)">
       <use xlink:href="#DejaVuSans-31"/>
       <use x="63.623047" xlink:href="#DejaVuSans-2e"/>
       <use x="95.410156" xlink:href="#DejaVuSans-30"/>
      </g>
     </g>
    </g>
   </g>
   <g id="matplotlib.axis_6">
    <g id="ytick_13">
     <g id="line2d_30">
      <g>
       <use style="stroke:#000000;stroke-width:0.8;" x="395.627604" xlink:href="#me86e7073f9" y="170.887159"/>
      </g>
     </g>
     <g id="text_28">
      <!-- 0.0 -->
      <g transform="translate(372.724479 174.686378)scale(0.1 -0.1)">
       <use xlink:href="#DejaVuSans-30"/>
       <use x="63.623047" xlink:href="#DejaVuSans-2e"/>
       <use x="95.410156" xlink:href="#DejaVuSans-30"/>
      </g>
     </g>
    </g>
    <g id="ytick_14">
     <g id="line2d_31">
      <g>
       <use style="stroke:#000000;stroke-width:0.8;" x="395.627604" xlink:href="#me86e7073f9" y="142.588295"/>
      </g>
     </g>
     <g id="text_29">
      <!-- 0.2 -->
      <g transform="translate(372.724479 146.387514)scale(0.1 -0.1)">
       <use xlink:href="#DejaVuSans-30"/>
       <use x="63.623047" xlink:href="#DejaVuSans-2e"/>
       <use x="95.410156" xlink:href="#DejaVuSans-32"/>
      </g>
     </g>
    </g>
    <g id="ytick_15">
     <g id="line2d_32">
      <g>
       <use style="stroke:#000000;stroke-width:0.8;" x="395.627604" xlink:href="#me86e7073f9" y="114.289432"/>
      </g>
     </g>
     <g id="text_30">
      <!-- 0.4 -->
      <g transform="translate(372.724479 118.088651)scale(0.1 -0.1)">
       <use xlink:href="#DejaVuSans-30"/>
       <use x="63.623047" xlink:href="#DejaVuSans-2e"/>
       <use x="95.410156" xlink:href="#DejaVuSans-34"/>
      </g>
     </g>
    </g>
    <g id="ytick_16">
     <g id="line2d_33">
      <g>
       <use style="stroke:#000000;stroke-width:0.8;" x="395.627604" xlink:href="#me86e7073f9" y="85.990568"/>
      </g>
     </g>
     <g id="text_31">
      <!-- 0.6 -->
      <g transform="translate(372.724479 89.789787)scale(0.1 -0.1)">
       <use xlink:href="#DejaVuSans-30"/>
       <use x="63.623047" xlink:href="#DejaVuSans-2e"/>
       <use x="95.410156" xlink:href="#DejaVuSans-36"/>
      </g>
     </g>
    </g>
    <g id="ytick_17">
     <g id="line2d_34">
      <g>
       <use style="stroke:#000000;stroke-width:0.8;" x="395.627604" xlink:href="#me86e7073f9" y="57.691705"/>
      </g>
     </g>
     <g id="text_32">
      <!-- 0.8 -->
      <g transform="translate(372.724479 61.490923)scale(0.1 -0.1)">
       <use xlink:href="#DejaVuSans-30"/>
       <use x="63.623047" xlink:href="#DejaVuSans-2e"/>
       <use x="95.410156" xlink:href="#DejaVuSans-38"/>
      </g>
     </g>
    </g>
    <g id="ytick_18">
     <g id="line2d_35">
      <g>
       <use style="stroke:#000000;stroke-width:0.8;" x="395.627604" xlink:href="#me86e7073f9" y="29.392841"/>
      </g>
     </g>
     <g id="text_33">
      <!-- 1.0 -->
      <g transform="translate(372.724479 33.19206)scale(0.1 -0.1)">
       <use xlink:href="#DejaVuSans-31"/>
       <use x="63.623047" xlink:href="#DejaVuSans-2e"/>
       <use x="95.410156" xlink:href="#DejaVuSans-30"/>
      </g>
     </g>
    </g>
   </g>
   <g id="line2d_36">
    <path clip-path="url(#p055be70285)" d="M 401.407297 30.110774 
L 402.574912 30.849493 
L 403.742527 31.60879 
L 404.910142 32.388457 
L 406.077757 33.188289 
L 407.245372 34.00808 
L 408.412986 34.847625 
L 409.580601 35.706719 
L 410.748216 36.585158 
L 411.915831 37.482739 
L 413.083446 38.399258 
L 414.25106 39.334512 
L 415.418675 40.288299 
L 416.58629 41.260414 
L 417.753905 42.250657 
L 418.92152 43.258825 
L 420.089134 44.284715 
L 421.256749 45.328126 
L 422.424364 46.388855 
L 423.591979 47.4667 
L 424.759594 48.56146 
L 425.927209 49.672932 
L 427.094823 50.800913 
L 428.262438 51.945203 
L 429.430053 53.105598 
L 430.597668 54.281896 
L 431.765283 55.473895 
L 432.932897 56.681391 
L 434.100512 57.904183 
L 435.268127 59.142066 
L 436.435742 60.394837 
L 437.603357 61.662294 
L 438.770972 62.944231 
L 439.938586 64.240446 
L 441.106201 65.550735 
L 442.273816 66.874892 
L 443.441431 68.212712 
L 444.609046 69.563992 
L 445.77666 70.928526 
L 446.944275 72.306107 
L 448.11189 73.696531 
L 449.279505 75.099591 
L 450.44712 76.515081 
L 451.614734 77.942793 
L 452.782349 79.382522 
L 453.949964 80.834059 
L 455.117579 82.297197 
L 456.285194 83.771728 
L 457.452809 85.257443 
L 458.620423 86.754134 
L 459.788038 88.261592 
L 460.955653 89.779608 
L 462.123268 91.307972 
L 463.290883 92.846474 
L 464.458497 94.394904 
L 465.626112 95.953051 
L 466.793727 97.520705 
L 467.961342 99.097655 
L 469.128957 100.683688 
L 470.296571 102.278594 
L 471.464186 103.882159 
L 472.631801 105.494173 
L 473.799416 107.114422 
L 474.967031 108.742692 
L 476.134646 110.378772 
L 477.30226 112.022448 
L 478.469875 113.673505 
L 479.63749 115.33173 
L 480.805105 116.996908 
L 481.97272 118.668825 
L 483.140334 120.347266 
L 484.307949 122.032017 
L 485.475564 123.722861 
L 486.643179 125.419583 
L 487.810794 127.121967 
L 488.978408 128.829799 
L 490.146023 130.54286 
L 491.313638 132.260936 
L 492.481253 133.983808 
L 493.648868 135.711262 
L 494.816483 137.443079 
L 495.984097 139.179044 
L 497.151712 140.918937 
L 498.319327 142.662542 
L 499.486942 144.409642 
L 500.654557 146.160018 
L 501.822171 147.913454 
L 502.989786 149.66973 
L 504.157401 151.428629 
L 505.325016 153.189932 
L 506.492631 154.953422 
L 507.660245 156.71888 
L 508.82786 158.486087 
L 509.995475 160.254825 
L 511.16309 162.024875 
L 512.330705 163.79602 
L 513.49832 165.568039 
L 514.665934 167.340714 
L 515.833549 169.113827 
L 517.001164 170.887159 
" style="fill:none;stroke:#1f77b4;stroke-linecap:square;stroke-width:1.5;"/>
   </g>
   <g id="line2d_37">
    <path clip-path="url(#p055be70285)" d="M 401.407297 169.113827 
L 402.574912 167.340714 
L 403.742527 165.568039 
L 404.910142 163.79602 
L 406.077757 162.024875 
L 407.245372 160.254825 
L 408.412986 158.486087 
L 409.580601 156.71888 
L 410.748216 154.953422 
L 411.915831 153.189932 
L 413.083446 151.428629 
L 414.25106 149.66973 
L 415.418675 147.913454 
L 416.58629 146.160018 
L 417.753905 144.409642 
L 418.92152 142.662542 
L 420.089134 140.918937 
L 421.256749 139.179044 
L 422.424364 137.443079 
L 423.591979 135.711262 
L 424.759594 133.983808 
L 425.927209 132.260936 
L 427.094823 130.54286 
L 428.262438 128.829799 
L 429.430053 127.121967 
L 430.597668 125.419583 
L 431.765283 123.722861 
L 432.932897 122.032017 
L 434.100512 120.347266 
L 435.268127 118.668825 
L 436.435742 116.996908 
L 437.603357 115.33173 
L 438.770972 113.673505 
L 439.938586 112.022448 
L 441.106201 110.378772 
L 442.273816 108.742692 
L 443.441431 107.114422 
L 444.609046 105.494173 
L 445.77666 103.882159 
L 446.944275 102.278594 
L 448.11189 100.683688 
L 449.279505 99.097655 
L 450.44712 97.520705 
L 451.614734 95.953051 
L 452.782349 94.394904 
L 453.949964 92.846474 
L 455.117579 91.307972 
L 456.285194 89.779608 
L 457.452809 88.261592 
L 458.620423 86.754134 
L 459.788038 85.257443 
L 460.955653 83.771728 
L 462.123268 82.297197 
L 463.290883 80.834059 
L 464.458497 79.382522 
L 465.626112 77.942793 
L 466.793727 76.515081 
L 467.961342 75.099591 
L 469.128957 73.696531 
L 470.296571 72.306107 
L 471.464186 70.928526 
L 472.631801 69.563992 
L 473.799416 68.212712 
L 474.967031 66.874892 
L 476.134646 65.550735 
L 477.30226 64.240446 
L 478.469875 62.944231 
L 479.63749 61.662294 
L 480.805105 60.394837 
L 481.97272 59.142066 
L 483.140334 57.904183 
L 484.307949 56.681391 
L 485.475564 55.473895 
L 486.643179 54.281896 
L 487.810794 53.105598 
L 488.978408 51.945203 
L 490.146023 50.800913 
L 491.313638 49.672932 
L 492.481253 48.56146 
L 493.648868 47.4667 
L 494.816483 46.388855 
L 495.984097 45.328126 
L 497.151712 44.284715 
L 498.319327 43.258825 
L 499.486942 42.250657 
L 500.654557 41.260414 
L 501.822171 40.288299 
L 502.989786 39.334512 
L 504.157401 38.399258 
L 505.325016 37.482739 
L 506.492631 36.585158 
L 507.660245 35.706719 
L 508.82786 34.847625 
L 509.995475 34.00808 
L 511.16309 33.188289 
L 512.330705 32.388457 
L 513.49832 31.60879 
L 514.665934 30.849493 
L 515.833549 30.110774 
L 517.001164 29.392841 
" style="fill:none;stroke:#ff7f0e;stroke-linecap:square;stroke-width:1.5;"/>
   </g>
   <g id="patch_14">
    <path d="M 395.627604 177.961875 
L 395.627604 22.318125 
" style="fill:none;stroke:#000000;stroke-linecap:square;stroke-linejoin:miter;stroke-width:0.8;"/>
   </g>
   <g id="patch_15">
    <path d="M 522.780857 177.961875 
L 522.780857 22.318125 
" style="fill:none;stroke:#000000;stroke-linecap:square;stroke-linejoin:miter;stroke-width:0.8;"/>
   </g>
   <g id="patch_16">
    <path d="M 395.627604 177.961875 
L 522.780857 177.961875 
" style="fill:none;stroke:#000000;stroke-linecap:square;stroke-linejoin:miter;stroke-width:0.8;"/>
   </g>
   <g id="patch_17">
    <path d="M 395.627604 22.318125 
L 522.780857 22.318125 
" style="fill:none;stroke:#000000;stroke-linecap:square;stroke-linejoin:miter;stroke-width:0.8;"/>
   </g>
   <g id="text_34">
    <!-- -4.5 dB panning law -->
    <g transform="translate(399.231418 16.318125)scale(0.12 -0.12)">
     <defs>
      <path d="M 313 2009 
L 1997 2009 
L 1997 1497 
L 313 1497 
L 313 2009 
z
" id="DejaVuSans-2d" transform="scale(0.015625)"/>
      <path d="M 1259 2228 
L 1259 519 
L 2272 519 
Q 2781 519 3026 730 
Q 3272 941 3272 1375 
Q 3272 1813 3026 2020 
Q 2781 2228 2272 2228 
L 1259 2228 
z
M 1259 4147 
L 1259 2741 
L 2194 2741 
Q 2656 2741 2882 2914 
Q 3109 3088 3109 3444 
Q 3109 3797 2882 3972 
Q 2656 4147 2194 4147 
L 1259 4147 
z
M 628 4666 
L 2241 4666 
Q 2963 4666 3353 4366 
Q 3744 4066 3744 3513 
Q 3744 3084 3544 2831 
Q 3344 2578 2956 2516 
Q 3422 2416 3680 2098 
Q 3938 1781 3938 1306 
Q 3938 681 3513 340 
Q 3088 0 2303 0 
L 628 0 
L 628 4666 
z
" id="DejaVuSans-42" transform="scale(0.015625)"/>
     </defs>
     <use xlink:href="#DejaVuSans-2d"/>
     <use x="36.083984" xlink:href="#DejaVuSans-34"/>
     <use x="99.707031" xlink:href="#DejaVuSans-2e"/>
     <use x="131.494141" xlink:href="#DejaVuSans-35"/>
     <use x="195.117188" xlink:href="#DejaVuSans-20"/>
     <use x="226.904297" xlink:href="#DejaVuSans-64"/>
     <use x="290.380859" xlink:href="#DejaVuSans-42"/>
     <use x="358.984375" xlink:href="#DejaVuSans-20"/>
     <use x="390.771484" xlink:href="#DejaVuSans-70"/>
     <use x="454.248047" xlink:href="#DejaVuSans-61"/>
     <use x="515.527344" xlink:href="#DejaVuSans-6e"/>
     <use x="578.90625" xlink:href="#DejaVuSans-6e"/>
     <use x="642.285156" xlink:href="#DejaVuSans-69"/>
     <use x="670.068359" xlink:href="#DejaVuSans-6e"/>
     <use x="733.447266" xlink:href="#DejaVuSans-67"/>
     <use x="796.923828" xlink:href="#DejaVuSans-20"/>
     <use x="828.710938" xlink:href="#DejaVuSans-6c"/>
     <use x="856.494141" xlink:href="#DejaVuSans-61"/>
     <use x="917.773438" xlink:href="#DejaVuSans-77"/>
    </g>
   </g>
  </g>
  <g id="axes_4">
   <g id="patch_18">
    <path d="M 52.160938 380.561875 
L 179.314191 380.561875 
L 179.314191 224.918125 
L 52.160938 224.918125 
z
" style="fill:#ffffff;"/>
   </g>
   <g id="matplotlib.axis_7">
    <g id="xtick_10">
     <g id="line2d_38">
      <g>
       <use style="stroke:#000000;stroke-width:0.8;" x="56.773016" xlink:href="#m716874c67d" y="380.561875"/>
      </g>
     </g>
     <g id="text_35">
      <!-- 0.0 -->
      <g transform="translate(48.821454 395.160312)scale(0.1 -0.1)">
       <use xlink:href="#DejaVuSans-30"/>
       <use x="63.623047" xlink:href="#DejaVuSans-2e"/>
       <use x="95.410156" xlink:href="#DejaVuSans-30"/>
      </g>
     </g>
    </g>
    <g id="xtick_11">
     <g id="line2d_39">
      <g>
       <use style="stroke:#000000;stroke-width:0.8;" x="115.153757" xlink:href="#m716874c67d" y="380.561875"/>
      </g>
     </g>
     <g id="text_36">
      <!-- 0.5 -->
      <g transform="translate(107.202194 395.160312)scale(0.1 -0.1)">
       <use xlink:href="#DejaVuSans-30"/>
       <use x="63.623047" xlink:href="#DejaVuSans-2e"/>
       <use x="95.410156" xlink:href="#DejaVuSans-35"/>
      </g>
     </g>
    </g>
    <g id="xtick_12">
     <g id="line2d_40">
      <g>
       <use style="stroke:#000000;stroke-width:0.8;" x="173.534497" xlink:href="#m716874c67d" y="380.561875"/>
      </g>
     </g>
     <g id="text_37">
      <!-- 1.0 -->
      <g transform="translate(165.582935 395.160312)scale(0.1 -0.1)">
       <use xlink:href="#DejaVuSans-31"/>
       <use x="63.623047" xlink:href="#DejaVuSans-2e"/>
       <use x="95.410156" xlink:href="#DejaVuSans-30"/>
      </g>
     </g>
    </g>
   </g>
   <g id="matplotlib.axis_8">
    <g id="ytick_19">
     <g id="line2d_41">
      <g>
       <use style="stroke:#000000;stroke-width:0.8;" x="52.160938" xlink:href="#me86e7073f9" y="235.294375"/>
      </g>
     </g>
     <g id="text_38">
      <!-- 0.0 -->
      <g transform="translate(29.257812 239.093594)scale(0.1 -0.1)">
       <use xlink:href="#DejaVuSans-30"/>
       <use x="63.623047" xlink:href="#DejaVuSans-2e"/>
       <use x="95.410156" xlink:href="#DejaVuSans-30"/>
      </g>
     </g>
    </g>
    <g id="ytick_20">
     <g id="line2d_42">
      <g>
       <use style="stroke:#000000;stroke-width:0.8;" x="52.160938" xlink:href="#me86e7073f9" y="266.423125"/>
      </g>
     </g>
     <g id="text_39">
      <!-- 1.5 -->
      <g transform="translate(20.878125 270.222344)scale(0.1 -0.1)">
       <defs>
        <path d="M 678 2272 
L 4684 2272 
L 4684 1741 
L 678 1741 
L 678 2272 
z
" id="DejaVuSans-2212" transform="scale(0.015625)"/>
       </defs>
       <use xlink:href="#DejaVuSans-2212"/>
       <use x="83.789062" xlink:href="#DejaVuSans-31"/>
       <use x="147.412109" xlink:href="#DejaVuSans-2e"/>
       <use x="179.199219" xlink:href="#DejaVuSans-35"/>
      </g>
     </g>
    </g>
    <g id="ytick_21">
     <g id="line2d_43">
      <g>
       <use style="stroke:#000000;stroke-width:0.8;" x="52.160938" xlink:href="#me86e7073f9" y="297.551875"/>
      </g>
     </g>
     <g id="text_40">
      <!-- 3.0 -->
      <g transform="translate(20.878125 301.351094)scale(0.1 -0.1)">
       <defs>
        <path d="M 2597 2516 
Q 3050 2419 3304 2112 
Q 3559 1806 3559 1356 
Q 3559 666 3084 287 
Q 2609 -91 1734 -91 
Q 1441 -91 1130 -33 
Q 819 25 488 141 
L 488 750 
Q 750 597 1062 519 
Q 1375 441 1716 441 
Q 2309 441 2620 675 
Q 2931 909 2931 1356 
Q 2931 1769 2642 2001 
Q 2353 2234 1838 2234 
L 1294 2234 
L 1294 2753 
L 1863 2753 
Q 2328 2753 2575 2939 
Q 2822 3125 2822 3475 
Q 2822 3834 2567 4026 
Q 2313 4219 1838 4219 
Q 1578 4219 1281 4162 
Q 984 4106 628 3988 
L 628 4550 
Q 988 4650 1302 4700 
Q 1616 4750 1894 4750 
Q 2613 4750 3031 4423 
Q 3450 4097 3450 3541 
Q 3450 3153 3228 2886 
Q 3006 2619 2597 2516 
z
" id="DejaVuSans-33" transform="scale(0.015625)"/>
       </defs>
       <use xlink:href="#DejaVuSans-2212"/>
       <use x="83.789062" xlink:href="#DejaVuSans-33"/>
       <use x="147.412109" xlink:href="#DejaVuSans-2e"/>
       <use x="179.199219" xlink:href="#DejaVuSans-30"/>
      </g>
     </g>
    </g>
    <g id="ytick_22">
     <g id="line2d_44">
      <g>
       <use style="stroke:#000000;stroke-width:0.8;" x="52.160938" xlink:href="#me86e7073f9" y="328.680625"/>
      </g>
     </g>
     <g id="text_41">
      <!-- 4.5 -->
      <g transform="translate(20.878125 332.479844)scale(0.1 -0.1)">
       <use xlink:href="#DejaVuSans-2212"/>
       <use x="83.789062" xlink:href="#DejaVuSans-34"/>
       <use x="147.412109" xlink:href="#DejaVuSans-2e"/>
       <use x="179.199219" xlink:href="#DejaVuSans-35"/>
      </g>
     </g>
    </g>
    <g id="ytick_23">
     <g id="line2d_45">
      <g>
       <use style="stroke:#000000;stroke-width:0.8;" x="52.160938" xlink:href="#me86e7073f9" y="359.809375"/>
      </g>
     </g>
     <g id="text_42">
      <!-- 6.0 -->
      <g transform="translate(20.878125 363.608594)scale(0.1 -0.1)">
       <use xlink:href="#DejaVuSans-2212"/>
       <use x="83.789062" xlink:href="#DejaVuSans-36"/>
       <use x="147.412109" xlink:href="#DejaVuSans-2e"/>
       <use x="179.199219" xlink:href="#DejaVuSans-30"/>
      </g>
     </g>
    </g>
    <g id="text_43">
     <!-- dB -->
     <g transform="translate(14.798438 309.344687)rotate(-90)scale(0.1 -0.1)">
      <use xlink:href="#DejaVuSans-64"/>
      <use x="63.476562" xlink:href="#DejaVuSans-42"/>
     </g>
    </g>
   </g>
   <g id="line2d_46">
    <path clip-path="url(#p2ede4298e3)" d="M 57.940631 237.105987 
L 59.108246 238.935992 
L 60.27586 240.784767 
L 61.443475 242.6527 
L 62.61109 244.540193 
L 63.778705 246.447659 
L 64.94632 248.375527 
L 66.113935 250.324237 
L 67.281549 252.294245 
L 68.449164 254.286021 
L 69.616779 256.300053 
L 70.784394 258.336842 
L 71.952009 260.396909 
L 73.119623 262.480793 
L 74.287238 264.58905 
L 75.454853 266.722257 
L 76.622468 268.881013 
L 77.790083 271.065936 
L 78.957697 273.277668 
L 80.125312 275.516876 
L 81.292927 277.784251 
L 82.460542 280.08051 
L 83.628157 282.4064 
L 84.795772 284.762694 
L 85.963386 287.150198 
L 87.131001 289.56975 
L 88.298616 292.022222 
L 89.466231 294.508522 
L 90.633846 297.029597 
L 91.80146 299.586433 
L 92.969075 302.18006 
L 94.13669 304.811551 
L 95.304305 307.482028 
L 96.47192 310.192665 
L 97.639534 312.944686 
L 98.807149 315.739377 
L 99.974764 318.57808 
L 101.142379 321.462204 
L 102.309994 324.393227 
L 103.477609 327.372699 
L 104.645223 330.402248 
L 105.812838 333.483586 
L 106.980453 336.618516 
L 108.148068 339.808934 
L 109.315683 343.056841 
L 110.483297 346.364345 
L 111.650912 349.733675 
L 112.818527 353.167187 
L 113.986142 356.667373 
L 115.153757 360.236875 
L 116.321371 363.878492 
L 117.488986 367.595199 
L 118.656601 371.390159 
L 119.824216 375.266737 
L 120.991831 379.228521 
L 122.159446 383.279342 
L 123.32706 387.423293 
L 124.494675 391.664757 
L 125.66229 396.008435 
L 126.829905 400.459376 
L 127.99752 405.02301 
L 129.165134 409.705193 
L 130.332749 414.512249 
L 131.500364 419.451022 
L 131.704776 420.34 
" style="fill:none;stroke:#1f77b4;stroke-linecap:square;stroke-width:1.5;"/>
   </g>
   <g id="line2d_47">
    <path clip-path="url(#p2ede4298e3)" d="M 98.602738 420.34 
L 98.807149 419.451022 
L 99.974764 414.512249 
L 101.142379 409.705193 
L 102.309994 405.02301 
L 103.477609 400.459376 
L 104.645223 396.008435 
L 105.812838 391.664757 
L 106.980453 387.423293 
L 108.148068 383.279342 
L 109.315683 379.228521 
L 110.483297 375.266737 
L 111.650912 371.390159 
L 112.818527 367.595199 
L 113.986142 363.878492 
L 115.153757 360.236875 
L 116.321371 356.667373 
L 117.488986 353.167187 
L 118.656601 349.733675 
L 119.824216 346.364345 
L 120.991831 343.056841 
L 122.159446 339.808934 
L 123.32706 336.618516 
L 124.494675 333.483586 
L 125.66229 330.402248 
L 126.829905 327.372699 
L 127.99752 324.393227 
L 129.165134 321.462204 
L 130.332749 318.57808 
L 131.500364 315.739377 
L 132.667979 312.944686 
L 133.835594 310.192665 
L 135.003208 307.482028 
L 136.170823 304.811551 
L 137.338438 302.18006 
L 138.506053 299.586433 
L 139.673668 297.029597 
L 140.841283 294.508522 
L 142.008897 292.022222 
L 143.176512 289.56975 
L 144.344127 287.150198 
L 145.511742 284.762694 
L 146.679357 282.4064 
L 147.846971 280.08051 
L 149.014586 277.784251 
L 150.182201 275.516876 
L 151.349816 273.277668 
L 152.517431 271.065936 
L 153.685045 268.881013 
L 154.85266 266.722257 
L 156.020275 264.58905 
L 157.18789 262.480793 
L 158.355505 260.396909 
L 159.52312 258.336842 
L 160.690734 256.300053 
L 161.858349 254.286021 
L 163.025964 252.294245 
L 164.193579 250.324237 
L 165.361194 248.375527 
L 166.528808 246.447659 
L 167.696423 244.540193 
L 168.864038 242.6527 
L 170.031653 240.784767 
L 171.199268 238.935992 
L 172.366882 237.105987 
L 173.534497 235.294375 
" style="fill:none;stroke:#ff7f0e;stroke-linecap:square;stroke-width:1.5;"/>
   </g>
   <g id="line2d_48">
    <path clip-path="url(#p2ede4298e3)" d="M 57.940631 237.096792 
L 59.108246 238.898463 
L 60.27586 240.698599 
L 61.443475 242.496365 
L 62.61109 244.290879 
L 63.778705 246.081206 
L 64.94632 247.866363 
L 66.113935 249.645312 
L 67.281549 251.416958 
L 68.449164 253.180155 
L 69.616779 254.933697 
L 70.784394 256.676319 
L 71.952009 258.406699 
L 73.119623 260.123455 
L 74.287238 261.825144 
L 75.454853 263.510266 
L 76.622468 265.177258 
L 77.790083 266.8245 
L 78.957697 268.450313 
L 80.125312 270.052963 
L 81.292927 271.63066 
L 82.460542 273.181562 
L 83.628157 274.703779 
L 84.795772 276.195376 
L 85.963386 277.654374 
L 87.131001 279.078762 
L 88.298616 280.466493 
L 89.466231 281.8155 
L 90.633846 283.123695 
L 91.80146 284.388981 
L 92.969075 285.609257 
L 94.13669 286.78243 
L 95.304305 287.906422 
L 96.47192 288.979181 
L 97.639534 289.998691 
L 98.807149 290.96298 
L 99.974764 291.870137 
L 101.142379 292.718318 
L 102.309994 293.505757 
L 103.477609 294.230781 
L 104.645223 294.89182 
L 105.812838 295.487413 
L 106.980453 296.016225 
L 108.148068 296.477052 
L 109.315683 296.868832 
L 110.483297 297.19065 
L 111.650912 297.44175 
L 112.818527 297.621537 
L 113.986142 297.729581 
L 115.153757 297.765625 
L 116.321371 297.729581 
L 117.488986 297.621537 
L 118.656601 297.44175 
L 119.824216 297.19065 
L 120.991831 296.868832 
L 122.159446 296.477052 
L 123.32706 296.016225 
L 124.494675 295.487413 
L 125.66229 294.89182 
L 126.829905 294.230781 
L 127.99752 293.505757 
L 129.165134 292.718318 
L 130.332749 291.870137 
L 131.500364 290.96298 
L 132.667979 289.998691 
L 133.835594 288.979181 
L 135.003208 287.906422 
L 136.170823 286.78243 
L 137.338438 285.609257 
L 138.506053 284.388981 
L 139.673668 283.123695 
L 140.841283 281.8155 
L 142.008897 280.466493 
L 143.176512 279.078762 
L 144.344127 277.654374 
L 145.511742 276.195376 
L 146.679357 274.703779 
L 147.846971 273.181562 
L 149.014586 271.63066 
L 150.182201 270.052963 
L 151.349816 268.450313 
L 152.517431 266.8245 
L 153.685045 265.177258 
L 154.85266 263.510266 
L 156.020275 261.825144 
L 157.18789 260.123455 
L 158.355505 258.406699 
L 159.52312 256.676319 
L 160.690734 254.933697 
L 161.858349 253.180155 
L 163.025964 251.416958 
L 164.193579 249.645312 
L 165.361194 247.866363 
L 166.528808 246.081206 
L 167.696423 244.290879 
L 168.864038 242.496365 
L 170.031653 240.698599 
L 171.199268 238.898463 
L 172.366882 237.096792 
L 173.534497 235.294375 
" style="fill:none;stroke:#008000;stroke-linecap:square;stroke-width:1.5;"/>
   </g>
   <g id="patch_19">
    <path d="M 52.160938 380.561875 
L 52.160938 224.918125 
" style="fill:none;stroke:#000000;stroke-linecap:square;stroke-linejoin:miter;stroke-width:0.8;"/>
   </g>
   <g id="patch_20">
    <path d="M 179.314191 380.561875 
L 179.314191 224.918125 
" style="fill:none;stroke:#000000;stroke-linecap:square;stroke-linejoin:miter;stroke-width:0.8;"/>
   </g>
   <g id="patch_21">
    <path d="M 52.160938 380.561875 
L 179.314191 380.561875 
" style="fill:none;stroke:#000000;stroke-linecap:square;stroke-linejoin:miter;stroke-width:0.8;"/>
   </g>
   <g id="patch_22">
    <path d="M 52.160938 224.918125 
L 179.314191 224.918125 
" style="fill:none;stroke:#000000;stroke-linecap:square;stroke-linejoin:miter;stroke-width:0.8;"/>
   </g>
   <g id="legend_2">
    <g id="patch_23">
     <path d="M 89.737564 250.318125 
L 141.737564 250.318125 
Q 143.737564 250.318125 143.737564 248.318125 
L 143.737564 231.918125 
Q 143.737564 229.918125 141.737564 229.918125 
L 89.737564 229.918125 
Q 87.737564 229.918125 87.737564 231.918125 
L 87.737564 248.318125 
Q 87.737564 250.318125 89.737564 250.318125 
z
" style="fill:#ffffff;opacity:0.8;stroke:#cccccc;stroke-linejoin:miter;"/>
    </g>
    <g id="line2d_49">
     <path d="M 91.737564 240.738437 
L 111.737564 240.738437 
" style="fill:none;stroke:#008000;stroke-linecap:square;stroke-width:1.5;"/>
    </g>
    <g id="line2d_50"/>
    <g id="text_44">
     <!-- P($\dot{\theta}$) -->
     <g transform="translate(119.737564 244.238437)scale(0.1 -0.1)">
      <defs>
       <path d="M 1259 4147 
L 1259 2394 
L 2053 2394 
Q 2494 2394 2734 2622 
Q 2975 2850 2975 3272 
Q 2975 3691 2734 3919 
Q 2494 4147 2053 4147 
L 1259 4147 
z
M 628 4666 
L 2053 4666 
Q 2838 4666 3239 4311 
Q 3641 3956 3641 3272 
Q 3641 2581 3239 2228 
Q 2838 1875 2053 1875 
L 1259 1875 
L 1259 0 
L 628 0 
L 628 4666 
z
" id="DejaVuSans-50" transform="scale(0.015625)"/>
      </defs>
      <use transform="translate(0 0.75)" xlink:href="#DejaVuSans-50"/>
      <use transform="translate(60.302734 0.75)" xlink:href="#DejaVuSans-28"/>
      <use transform="translate(162.205566 34.015625)" xlink:href="#DejaVuSans-307"/>
      <use transform="translate(99.316406 0.75)" xlink:href="#DejaVuSans-Oblique-3b8"/>
      <use transform="translate(160.498047 0.75)" xlink:href="#DejaVuSans-29"/>
     </g>
    </g>
   </g>
  </g>
  <g id="axes_5">
   <g id="patch_24">
    <path d="M 223.894271 380.561875 
L 351.047524 380.561875 
L 351.047524 224.918125 
L 223.894271 224.918125 
z
" style="fill:#ffffff;"/>
   </g>
   <g id="matplotlib.axis_9">
    <g id="xtick_13">
     <g id="line2d_51">
      <g>
       <use style="stroke:#000000;stroke-width:0.8;" x="228.506349" xlink:href="#m716874c67d" y="380.561875"/>
      </g>
     </g>
     <g id="text_45">
      <!-- 0.0 -->
      <g transform="translate(220.554787 395.160312)scale(0.1 -0.1)">
       <use xlink:href="#DejaVuSans-30"/>
       <use x="63.623047" xlink:href="#DejaVuSans-2e"/>
       <use x="95.410156" xlink:href="#DejaVuSans-30"/>
      </g>
     </g>
    </g>
    <g id="xtick_14">
     <g id="line2d_52">
      <g>
       <use style="stroke:#000000;stroke-width:0.8;" x="286.88709" xlink:href="#m716874c67d" y="380.561875"/>
      </g>
     </g>
     <g id="text_46">
      <!-- 0.5 -->
      <g transform="translate(278.935527 395.160312)scale(0.1 -0.1)">
       <use xlink:href="#DejaVuSans-30"/>
       <use x="63.623047" xlink:href="#DejaVuSans-2e"/>
       <use x="95.410156" xlink:href="#DejaVuSans-35"/>
      </g>
     </g>
    </g>
    <g id="xtick_15">
     <g id="line2d_53">
      <g>
       <use style="stroke:#000000;stroke-width:0.8;" x="345.267831" xlink:href="#m716874c67d" y="380.561875"/>
      </g>
     </g>
     <g id="text_47">
      <!-- 1.0 -->
      <g transform="translate(337.316268 395.160312)scale(0.1 -0.1)">
       <use xlink:href="#DejaVuSans-31"/>
       <use x="63.623047" xlink:href="#DejaVuSans-2e"/>
       <use x="95.410156" xlink:href="#DejaVuSans-30"/>
      </g>
     </g>
    </g>
    <g id="text_48">
     <!-- panning value ($\dot{\pi}$/2) -->
     <g transform="translate(238.720897 410.04)scale(0.1 -0.1)">
      <use transform="translate(0 0.828125)" xlink:href="#DejaVuSans-70"/>
      <use transform="translate(63.476562 0.828125)" xlink:href="#DejaVuSans-61"/>
      <use transform="translate(124.755859 0.828125)" xlink:href="#DejaVuSans-6e"/>
      <use transform="translate(188.134766 0.828125)" xlink:href="#DejaVuSans-6e"/>
      <use transform="translate(251.513672 0.828125)" xlink:href="#DejaVuSans-69"/>
      <use transform="translate(279.296875 0.828125)" xlink:href="#DejaVuSans-6e"/>
      <use transform="translate(342.675781 0.828125)" xlink:href="#DejaVuSans-67"/>
      <use transform="translate(406.152344 0.828125)" xlink:href="#DejaVuSans-20"/>
      <use transform="translate(437.939453 0.828125)" xlink:href="#DejaVuSans-76"/>
      <use transform="translate(497.119141 0.828125)" xlink:href="#DejaVuSans-61"/>
      <use transform="translate(558.398438 0.828125)" xlink:href="#DejaVuSans-6c"/>
      <use transform="translate(586.181641 0.828125)" xlink:href="#DejaVuSans-75"/>
      <use transform="translate(649.560547 0.828125)" xlink:href="#DejaVuSans-65"/>
      <use transform="translate(711.083984 0.828125)" xlink:href="#DejaVuSans-20"/>
      <use transform="translate(742.871094 0.828125)" xlink:href="#DejaVuSans-28"/>
      <use transform="translate(844.529785 12.015625)" xlink:href="#DejaVuSans-307"/>
      <use transform="translate(781.884766 0.828125)" xlink:href="#DejaVuSans-Oblique-3c0"/>
      <use transform="translate(842.089844 0.828125)" xlink:href="#DejaVuSans-2f"/>
      <use transform="translate(872.15625 0.828125)" xlink:href="#DejaVuSans-32"/>
      <use transform="translate(935.779297 0.828125)" xlink:href="#DejaVuSans-29"/>
     </g>
    </g>
   </g>
   <g id="matplotlib.axis_10">
    <g id="ytick_24">
     <g id="line2d_54">
      <g>
       <use style="stroke:#000000;stroke-width:0.8;" x="223.894271" xlink:href="#me86e7073f9" y="235.294375"/>
      </g>
     </g>
     <g id="text_49">
      <!-- 0.0 -->
      <g transform="translate(200.991146 239.093594)scale(0.1 -0.1)">
       <use xlink:href="#DejaVuSans-30"/>
       <use x="63.623047" xlink:href="#DejaVuSans-2e"/>
       <use x="95.410156" xlink:href="#DejaVuSans-30"/>
      </g>
     </g>
    </g>
    <g id="ytick_25">
     <g id="line2d_55">
      <g>
       <use style="stroke:#000000;stroke-width:0.8;" x="223.894271" xlink:href="#me86e7073f9" y="266.423125"/>
      </g>
     </g>
     <g id="text_50">
      <!-- 1.5 -->
      <g transform="translate(192.611458 270.222344)scale(0.1 -0.1)">
       <use xlink:href="#DejaVuSans-2212"/>
       <use x="83.789062" xlink:href="#DejaVuSans-31"/>
       <use x="147.412109" xlink:href="#DejaVuSans-2e"/>
       <use x="179.199219" xlink:href="#DejaVuSans-35"/>
      </g>
     </g>
    </g>
    <g id="ytick_26">
     <g id="line2d_56">
      <g>
       <use style="stroke:#000000;stroke-width:0.8;" x="223.894271" xlink:href="#me86e7073f9" y="297.551875"/>
      </g>
     </g>
     <g id="text_51">
      <!-- 3.0 -->
      <g transform="translate(192.611458 301.351094)scale(0.1 -0.1)">
       <use xlink:href="#DejaVuSans-2212"/>
       <use x="83.789062" xlink:href="#DejaVuSans-33"/>
       <use x="147.412109" xlink:href="#DejaVuSans-2e"/>
       <use x="179.199219" xlink:href="#DejaVuSans-30"/>
      </g>
     </g>
    </g>
    <g id="ytick_27">
     <g id="line2d_57">
      <g>
       <use style="stroke:#000000;stroke-width:0.8;" x="223.894271" xlink:href="#me86e7073f9" y="328.680625"/>
      </g>
     </g>
     <g id="text_52">
      <!-- 4.5 -->
      <g transform="translate(192.611458 332.479844)scale(0.1 -0.1)">
       <use xlink:href="#DejaVuSans-2212"/>
       <use x="83.789062" xlink:href="#DejaVuSans-34"/>
       <use x="147.412109" xlink:href="#DejaVuSans-2e"/>
       <use x="179.199219" xlink:href="#DejaVuSans-35"/>
      </g>
     </g>
    </g>
    <g id="ytick_28">
     <g id="line2d_58">
      <g>
       <use style="stroke:#000000;stroke-width:0.8;" x="223.894271" xlink:href="#me86e7073f9" y="359.809375"/>
      </g>
     </g>
     <g id="text_53">
      <!-- 6.0 -->
      <g transform="translate(192.611458 363.608594)scale(0.1 -0.1)">
       <use xlink:href="#DejaVuSans-2212"/>
       <use x="83.789062" xlink:href="#DejaVuSans-36"/>
       <use x="147.412109" xlink:href="#DejaVuSans-2e"/>
       <use x="179.199219" xlink:href="#DejaVuSans-30"/>
      </g>
     </g>
    </g>
   </g>
   <g id="line2d_59">
    <path clip-path="url(#pf6da4d95f9)" d="M 229.673964 235.316614 
L 230.841579 235.383341 
L 232.009194 235.494591 
L 233.176809 235.650416 
L 234.344423 235.850896 
L 235.512038 236.096129 
L 236.679653 236.386237 
L 237.847268 236.721365 
L 239.014883 237.10168 
L 240.182497 237.527374 
L 241.350112 237.998662 
L 242.517727 238.515783 
L 243.685342 239.078999 
L 244.852957 239.688602 
L 246.020572 240.344904 
L 247.188186 241.048249 
L 248.355801 241.799003 
L 249.523416 242.597564 
L 250.691031 243.444358 
L 251.858646 244.33984 
L 253.02626 245.284495 
L 254.193875 246.278843 
L 255.36149 247.323434 
L 256.529105 248.418854 
L 257.69672 249.565726 
L 258.864334 250.764707 
L 260.031949 252.016496 
L 261.199564 253.321832 
L 262.367179 254.681496 
L 263.534794 256.096314 
L 264.702409 257.567158 
L 265.870023 259.094951 
L 267.037638 260.680667 
L 268.205253 262.325333 
L 269.372868 264.030035 
L 270.540483 265.795921 
L 271.708097 267.6242 
L 272.875712 269.516152 
L 274.043327 271.473128 
L 275.210942 273.496555 
L 276.378557 275.587942 
L 277.546171 277.748885 
L 278.713786 279.981073 
L 279.881401 282.286291 
L 281.049016 284.666434 
L 282.216631 287.123505 
L 283.384246 289.659632 
L 284.55186 292.277072 
L 285.719475 294.97822 
L 286.88709 297.765625 
L 288.054705 300.641996 
L 289.22232 303.610219 
L 290.389934 306.673371 
L 291.557549 309.834734 
L 292.725164 313.097815 
L 293.892779 316.466366 
L 295.060394 319.944404 
L 296.228008 323.536238 
L 297.395623 327.246497 
L 298.563238 331.08016 
L 299.730853 335.04259 
L 300.898468 339.139577 
L 302.066083 343.377382 
L 303.233697 347.762786 
L 304.401312 352.303154 
L 305.568927 357.006493 
L 306.736542 361.881541 
L 307.904157 366.937844 
L 309.071771 372.185868 
L 310.239386 377.637115 
L 311.407001 383.304264 
L 312.574616 389.201334 
L 313.742231 395.343884 
L 314.909845 401.749239 
L 316.07746 408.436774 
L 317.245075 415.42824 
L 318.028558 420.34 
" style="fill:none;stroke:#1f77b4;stroke-linecap:square;stroke-width:1.5;"/>
   </g>
   <g id="line2d_60">
    <path clip-path="url(#pf6da4d95f9)" d="M 255.745622 420.34 
L 256.529105 415.42824 
L 257.69672 408.436774 
L 258.864334 401.749239 
L 260.031949 395.343884 
L 261.199564 389.201334 
L 262.367179 383.304264 
L 263.534794 377.637115 
L 264.702409 372.185868 
L 265.870023 366.937844 
L 267.037638 361.881541 
L 268.205253 357.006493 
L 269.372868 352.303154 
L 270.540483 347.762786 
L 271.708097 343.377382 
L 272.875712 339.139577 
L 274.043327 335.04259 
L 275.210942 331.08016 
L 276.378557 327.246497 
L 277.546171 323.536238 
L 278.713786 319.944404 
L 279.881401 316.466366 
L 281.049016 313.097815 
L 282.216631 309.834734 
L 283.384246 306.673371 
L 284.55186 303.610219 
L 285.719475 300.641996 
L 286.88709 297.765625 
L 288.054705 294.97822 
L 289.22232 292.277072 
L 290.389934 289.659632 
L 291.557549 287.123505 
L 292.725164 284.666434 
L 293.892779 282.286291 
L 295.060394 279.981073 
L 296.228008 277.748885 
L 297.395623 275.587942 
L 298.563238 273.496555 
L 299.730853 271.473128 
L 300.898468 269.516152 
L 302.066083 267.6242 
L 303.233697 265.795921 
L 304.401312 264.030035 
L 305.568927 262.325333 
L 306.736542 260.680667 
L 307.904157 259.094951 
L 309.071771 257.567158 
L 310.239386 256.096314 
L 311.407001 254.681496 
L 312.574616 253.321832 
L 313.742231 252.016496 
L 314.909845 250.764707 
L 316.07746 249.565726 
L 317.245075 248.418854 
L 318.41269 247.323434 
L 319.580305 246.278843 
L 320.74792 245.284495 
L 321.915534 244.33984 
L 323.083149 243.444358 
L 324.250764 242.597564 
L 325.418379 241.799003 
L 326.585994 241.048249 
L 327.753608 240.344904 
L 328.921223 239.688602 
L 330.088838 239.078999 
L 331.256453 238.515783 
L 332.424068 237.998662 
L 333.591683 237.527374 
L 334.759297 237.10168 
L 335.926912 236.721365 
L 337.094527 236.386237 
L 338.262142 236.096129 
L 339.429757 235.850896 
L 340.597371 235.650416 
L 341.764986 235.494591 
L 342.932601 235.383341 
L 344.100216 235.316614 
L 345.267831 235.294375 
" style="fill:none;stroke:#ff7f0e;stroke-linecap:square;stroke-width:1.5;"/>
   </g>
   <g id="line2d_61">
    <path clip-path="url(#pf6da4d95f9)" d="M 229.673964 235.294375 
L 230.841579 235.294375 
L 232.009194 235.294375 
L 233.176809 235.294375 
L 234.344423 235.294375 
L 235.512038 235.294375 
L 236.679653 235.294375 
L 237.847268 235.294375 
L 239.014883 235.294375 
L 240.182497 235.294375 
L 241.350112 235.294375 
L 242.517727 235.294375 
L 243.685342 235.294375 
L 244.852957 235.294375 
L 246.020572 235.294375 
L 247.188186 235.294375 
L 248.355801 235.294375 
L 249.523416 235.294375 
L 250.691031 235.294375 
L 251.858646 235.294375 
L 253.02626 235.294375 
L 254.193875 235.294375 
L 255.36149 235.294375 
L 256.529105 235.294375 
L 257.69672 235.294375 
L 258.864334 235.294375 
L 260.031949 235.294375 
L 261.199564 235.294375 
L 262.367179 235.294375 
L 263.534794 235.294375 
L 264.702409 235.294375 
L 265.870023 235.294375 
L 267.037638 235.294375 
L 268.205253 235.294375 
L 269.372868 235.294375 
L 270.540483 235.294375 
L 271.708097 235.294375 
L 272.875712 235.294375 
L 274.043327 235.294375 
L 275.210942 235.294375 
L 276.378557 235.294375 
L 277.546171 235.294375 
L 278.713786 235.294375 
L 279.881401 235.294375 
L 281.049016 235.294375 
L 282.216631 235.294375 
L 283.384246 235.294375 
L 284.55186 235.294375 
L 285.719475 235.294375 
L 286.88709 235.294375 
L 288.054705 235.294375 
L 289.22232 235.294375 
L 290.389934 235.294375 
L 291.557549 235.294375 
L 292.725164 235.294375 
L 293.892779 235.294375 
L 295.060394 235.294375 
L 296.228008 235.294375 
L 297.395623 235.294375 
L 298.563238 235.294375 
L 299.730853 235.294375 
L 300.898468 235.294375 
L 302.066083 235.294375 
L 303.233697 235.294375 
L 304.401312 235.294375 
L 305.568927 235.294375 
L 306.736542 235.294375 
L 307.904157 235.294375 
L 309.071771 235.294375 
L 310.239386 235.294375 
L 311.407001 235.294375 
L 312.574616 235.294375 
L 313.742231 235.294375 
L 314.909845 235.294375 
L 316.07746 235.294375 
L 317.245075 235.294375 
L 318.41269 235.294375 
L 319.580305 235.294375 
L 320.74792 235.294375 
L 321.915534 235.294375 
L 323.083149 235.294375 
L 324.250764 235.294375 
L 325.418379 235.294375 
L 326.585994 235.294375 
L 327.753608 235.294375 
L 328.921223 235.294375 
L 330.088838 235.294375 
L 331.256453 235.294375 
L 332.424068 235.294375 
L 333.591683 235.294375 
L 334.759297 235.294375 
L 335.926912 235.294375 
L 337.094527 235.294375 
L 338.262142 235.294375 
L 339.429757 235.294375 
L 340.597371 235.294375 
L 341.764986 235.294375 
L 342.932601 235.294375 
L 344.100216 235.294375 
L 345.267831 235.294375 
" style="fill:none;stroke:#008000;stroke-linecap:square;stroke-width:1.5;"/>
   </g>
   <g id="patch_25">
    <path d="M 223.894271 380.561875 
L 223.894271 224.918125 
" style="fill:none;stroke:#000000;stroke-linecap:square;stroke-linejoin:miter;stroke-width:0.8;"/>
   </g>
   <g id="patch_26">
    <path d="M 351.047524 380.561875 
L 351.047524 224.918125 
" style="fill:none;stroke:#000000;stroke-linecap:square;stroke-linejoin:miter;stroke-width:0.8;"/>
   </g>
   <g id="patch_27">
    <path d="M 223.894271 380.561875 
L 351.047524 380.561875 
" style="fill:none;stroke:#000000;stroke-linecap:square;stroke-linejoin:miter;stroke-width:0.8;"/>
   </g>
   <g id="patch_28">
    <path d="M 223.894271 224.918125 
L 351.047524 224.918125 
" style="fill:none;stroke:#000000;stroke-linecap:square;stroke-linejoin:miter;stroke-width:0.8;"/>
   </g>
  </g>
  <g id="axes_6">
   <g id="patch_29">
    <path d="M 395.627604 380.561875 
L 522.780857 380.561875 
L 522.780857 224.918125 
L 395.627604 224.918125 
z
" style="fill:#ffffff;"/>
   </g>
   <g id="matplotlib.axis_11">
    <g id="xtick_16">
     <g id="line2d_62">
      <g>
       <use style="stroke:#000000;stroke-width:0.8;" x="400.239683" xlink:href="#m716874c67d" y="380.561875"/>
      </g>
     </g>
     <g id="text_54">
      <!-- 0.0 -->
      <g transform="translate(392.28812 395.160312)scale(0.1 -0.1)">
       <use xlink:href="#DejaVuSans-30"/>
       <use x="63.623047" xlink:href="#DejaVuSans-2e"/>
       <use x="95.410156" xlink:href="#DejaVuSans-30"/>
      </g>
     </g>
    </g>
    <g id="xtick_17">
     <g id="line2d_63">
      <g>
       <use style="stroke:#000000;stroke-width:0.8;" x="458.620423" xlink:href="#m716874c67d" y="380.561875"/>
      </g>
     </g>
     <g id="text_55">
      <!-- 0.5 -->
      <g transform="translate(450.668861 395.160312)scale(0.1 -0.1)">
       <use xlink:href="#DejaVuSans-30"/>
       <use x="63.623047" xlink:href="#DejaVuSans-2e"/>
       <use x="95.410156" xlink:href="#DejaVuSans-35"/>
      </g>
     </g>
    </g>
    <g id="xtick_18">
     <g id="line2d_64">
      <g>
       <use style="stroke:#000000;stroke-width:0.8;" x="517.001164" xlink:href="#m716874c67d" y="380.561875"/>
      </g>
     </g>
     <g id="text_56">
      <!-- 1.0 -->
      <g transform="translate(509.049601 395.160312)scale(0.1 -0.1)">
       <use xlink:href="#DejaVuSans-31"/>
       <use x="63.623047" xlink:href="#DejaVuSans-2e"/>
       <use x="95.410156" xlink:href="#DejaVuSans-30"/>
      </g>
     </g>
    </g>
   </g>
   <g id="matplotlib.axis_12">
    <g id="ytick_29">
     <g id="line2d_65">
      <g>
       <use style="stroke:#000000;stroke-width:0.8;" x="395.627604" xlink:href="#me86e7073f9" y="235.294375"/>
      </g>
     </g>
     <g id="text_57">
      <!-- 0.0 -->
      <g transform="translate(372.724479 239.093594)scale(0.1 -0.1)">
       <use xlink:href="#DejaVuSans-30"/>
       <use x="63.623047" xlink:href="#DejaVuSans-2e"/>
       <use x="95.410156" xlink:href="#DejaVuSans-30"/>
      </g>
     </g>
    </g>
    <g id="ytick_30">
     <g id="line2d_66">
      <g>
       <use style="stroke:#000000;stroke-width:0.8;" x="395.627604" xlink:href="#me86e7073f9" y="266.423125"/>
      </g>
     </g>
     <g id="text_58">
      <!-- 1.5 -->
      <g transform="translate(364.344792 270.222344)scale(0.1 -0.1)">
       <use xlink:href="#DejaVuSans-2212"/>
       <use x="83.789062" xlink:href="#DejaVuSans-31"/>
       <use x="147.412109" xlink:href="#DejaVuSans-2e"/>
       <use x="179.199219" xlink:href="#DejaVuSans-35"/>
      </g>
     </g>
    </g>
    <g id="ytick_31">
     <g id="line2d_67">
      <g>
       <use style="stroke:#000000;stroke-width:0.8;" x="395.627604" xlink:href="#me86e7073f9" y="297.551875"/>
      </g>
     </g>
     <g id="text_59">
      <!-- 3.0 -->
      <g transform="translate(364.344792 301.351094)scale(0.1 -0.1)">
       <use xlink:href="#DejaVuSans-2212"/>
       <use x="83.789062" xlink:href="#DejaVuSans-33"/>
       <use x="147.412109" xlink:href="#DejaVuSans-2e"/>
       <use x="179.199219" xlink:href="#DejaVuSans-30"/>
      </g>
     </g>
    </g>
    <g id="ytick_32">
     <g id="line2d_68">
      <g>
       <use style="stroke:#000000;stroke-width:0.8;" x="395.627604" xlink:href="#me86e7073f9" y="328.680625"/>
      </g>
     </g>
     <g id="text_60">
      <!-- 4.5 -->
      <g transform="translate(364.344792 332.479844)scale(0.1 -0.1)">
       <use xlink:href="#DejaVuSans-2212"/>
       <use x="83.789062" xlink:href="#DejaVuSans-34"/>
       <use x="147.412109" xlink:href="#DejaVuSans-2e"/>
       <use x="179.199219" xlink:href="#DejaVuSans-35"/>
      </g>
     </g>
    </g>
    <g id="ytick_33">
     <g id="line2d_69">
      <g>
       <use style="stroke:#000000;stroke-width:0.8;" x="395.627604" xlink:href="#me86e7073f9" y="359.809375"/>
      </g>
     </g>
     <g id="text_61">
      <!-- 6.0 -->
      <g transform="translate(364.344792 363.608594)scale(0.1 -0.1)">
       <use xlink:href="#DejaVuSans-2212"/>
       <use x="83.789062" xlink:href="#DejaVuSans-36"/>
       <use x="147.412109" xlink:href="#DejaVuSans-2e"/>
       <use x="179.199219" xlink:href="#DejaVuSans-30"/>
      </g>
     </g>
    </g>
   </g>
   <g id="line2d_70">
    <path clip-path="url(#p0d5973160c)" d="M 401.407297 236.211301 
L 402.574912 237.159667 
L 403.742527 238.139679 
L 404.910142 239.151558 
L 406.077757 240.195544 
L 407.245372 241.271894 
L 408.412986 242.380882 
L 409.580601 243.522801 
L 410.748216 244.697963 
L 411.915831 245.906698 
L 413.083446 247.149357 
L 414.25106 248.426312 
L 415.418675 249.737954 
L 416.58629 251.084697 
L 417.753905 252.466977 
L 418.92152 253.885253 
L 420.089134 255.340008 
L 421.256749 256.83175 
L 422.424364 258.361013 
L 423.591979 259.928358 
L 424.759594 261.534373 
L 425.927209 263.179676 
L 427.094823 264.864917 
L 428.262438 266.590774 
L 429.430053 268.357962 
L 430.597668 270.167228 
L 431.765283 272.019359 
L 432.932897 273.915177 
L 434.100512 275.855547 
L 435.268127 277.841374 
L 436.435742 279.873609 
L 437.603357 281.953251 
L 438.770972 284.081347 
L 439.938586 286.258999 
L 441.106201 288.487361 
L 442.273816 290.767649 
L 443.441431 293.10114 
L 444.609046 295.489178 
L 445.77666 297.933177 
L 446.944275 300.434627 
L 448.11189 302.995095 
L 449.279505 305.616236 
L 450.44712 308.299794 
L 451.614734 311.047613 
L 452.782349 313.861637 
L 453.949964 316.743925 
L 455.117579 319.696654 
L 456.285194 322.72213 
L 457.452809 325.822797 
L 458.620423 329.00125 
L 459.788038 332.260244 
L 460.955653 335.602709 
L 462.123268 339.031765 
L 463.290883 342.550735 
L 464.458497 346.163168 
L 465.626112 349.872854 
L 466.793727 353.683848 
L 467.961342 357.600498 
L 469.128957 361.627466 
L 470.296571 365.769768 
L 471.464186 370.0328 
L 472.631801 374.422385 
L 473.799416 378.944816 
L 474.967031 383.606904 
L 476.134646 388.416043 
L 477.30226 393.380272 
L 478.469875 398.508352 
L 479.63749 403.80986 
L 480.805105 409.295286 
L 481.97272 414.976157 
L 483.036208 420.34 
" style="fill:none;stroke:#1f77b4;stroke-linecap:square;stroke-width:1.5;"/>
   </g>
   <g id="line2d_71">
    <path clip-path="url(#p0d5973160c)" d="M 434.204639 420.34 
L 435.268127 414.976157 
L 436.435742 409.295286 
L 437.603357 403.80986 
L 438.770972 398.508352 
L 439.938586 393.380272 
L 441.106201 388.416043 
L 442.273816 383.606904 
L 443.441431 378.944816 
L 444.609046 374.422385 
L 445.77666 370.0328 
L 446.944275 365.769768 
L 448.11189 361.627466 
L 449.279505 357.600498 
L 450.44712 353.683848 
L 451.614734 349.872854 
L 452.782349 346.163168 
L 453.949964 342.550735 
L 455.117579 339.031765 
L 456.285194 335.602709 
L 457.452809 332.260244 
L 458.620423 329.00125 
L 459.788038 325.822797 
L 460.955653 322.72213 
L 462.123268 319.696654 
L 463.290883 316.743925 
L 464.458497 313.861637 
L 465.626112 311.047613 
L 466.793727 308.299794 
L 467.961342 305.616236 
L 469.128957 302.995095 
L 470.296571 300.434627 
L 471.464186 297.933177 
L 472.631801 295.489178 
L 473.799416 293.10114 
L 474.967031 290.767649 
L 476.134646 288.487361 
L 477.30226 286.258999 
L 478.469875 284.081347 
L 479.63749 281.953251 
L 480.805105 279.873609 
L 481.97272 277.841374 
L 483.140334 275.855547 
L 484.307949 273.915177 
L 485.475564 272.019359 
L 486.643179 270.167228 
L 487.810794 268.357962 
L 488.978408 266.590774 
L 490.146023 264.864917 
L 491.313638 263.179676 
L 492.481253 261.534373 
L 493.648868 259.928358 
L 494.816483 258.361013 
L 495.984097 256.83175 
L 497.151712 255.340008 
L 498.319327 253.885253 
L 499.486942 252.466977 
L 500.654557 251.084697 
L 501.822171 249.737954 
L 502.989786 248.426312 
L 504.157401 247.149357 
L 505.325016 245.906698 
L 506.492631 244.697963 
L 507.660245 243.522801 
L 508.82786 242.380882 
L 509.995475 241.271894 
L 511.16309 240.195544 
L 512.330705 239.151558 
L 513.49832 238.139679 
L 514.665934 237.159667 
L 515.833549 236.211301 
L 517.001164 235.294375 
" style="fill:none;stroke:#ff7f0e;stroke-linecap:square;stroke-width:1.5;"/>
   </g>
   <g id="line2d_72">
    <path clip-path="url(#p0d5973160c)" d="M 401.407297 236.197001 
L 402.574912 237.101882 
L 403.742527 238.008322 
L 404.910142 238.915604 
L 406.077757 239.822992 
L 407.245372 240.72973 
L 408.412986 241.635044 
L 409.580601 242.53814 
L 410.748216 243.438207 
L 411.915831 244.334414 
L 413.083446 245.225912 
L 414.25106 246.111836 
L 415.418675 246.991303 
L 416.58629 247.863413 
L 417.753905 248.727255 
L 418.92152 249.581899 
L 420.089134 250.426404 
L 421.256749 251.259818 
L 422.424364 252.081179 
L 423.591979 252.889513 
L 424.759594 253.683843 
L 425.927209 254.463185 
L 427.094823 255.22655 
L 428.262438 255.972952 
L 429.430053 256.701401 
L 430.597668 257.410915 
L 431.765283 258.100514 
L 432.932897 258.76923 
L 434.100512 259.416104 
L 435.268127 260.04019 
L 436.435742 260.640562 
L 437.603357 261.216312 
L 438.770972 261.766554 
L 439.938586 262.290428 
L 441.106201 262.787105 
L 442.273816 263.255786 
L 443.441431 263.695705 
L 444.609046 264.106138 
L 445.77666 264.486398 
L 446.944275 264.835843 
L 448.11189 265.153877 
L 449.279505 265.439952 
L 450.44712 265.693571 
L 451.614734 265.914291 
L 452.782349 266.101722 
L 453.949964 266.255534 
L 455.117579 266.375451 
L 456.285194 266.46126 
L 457.452809 266.512807 
L 458.620423 266.53 
L 459.788038 266.512807 
L 460.955653 266.46126 
L 462.123268 266.375451 
L 463.290883 266.255534 
L 464.458497 266.101722 
L 465.626112 265.914291 
L 466.793727 265.693571 
L 467.961342 265.439952 
L 469.128957 265.153877 
L 470.296571 264.835843 
L 471.464186 264.486398 
L 472.631801 264.106138 
L 473.799416 263.695705 
L 474.967031 263.255786 
L 476.134646 262.787105 
L 477.30226 262.290428 
L 478.469875 261.766554 
L 479.63749 261.216312 
L 480.805105 260.640562 
L 481.97272 260.04019 
L 483.140334 259.416104 
L 484.307949 258.76923 
L 485.475564 258.100514 
L 486.643179 257.410915 
L 487.810794 256.701401 
L 488.978408 255.972952 
L 490.146023 255.22655 
L 491.313638 254.463185 
L 492.481253 253.683843 
L 493.648868 252.889513 
L 494.816483 252.081179 
L 495.984097 251.259818 
L 497.151712 250.426404 
L 498.319327 249.581899 
L 499.486942 248.727255 
L 500.654557 247.863413 
L 501.822171 246.991303 
L 502.989786 246.111836 
L 504.157401 245.225912 
L 505.325016 244.334414 
L 506.492631 243.438207 
L 507.660245 242.53814 
L 508.82786 241.635044 
L 509.995475 240.72973 
L 511.16309 239.822992 
L 512.330705 238.915604 
L 513.49832 238.008322 
L 514.665934 237.101882 
L 515.833549 236.197001 
L 517.001164 235.294375 
" style="fill:none;stroke:#008000;stroke-linecap:square;stroke-width:1.5;"/>
   </g>
   <g id="patch_30">
    <path d="M 395.627604 380.561875 
L 395.627604 224.918125 
" style="fill:none;stroke:#000000;stroke-linecap:square;stroke-linejoin:miter;stroke-width:0.8;"/>
   </g>
   <g id="patch_31">
    <path d="M 522.780857 380.561875 
L 522.780857 224.918125 
" style="fill:none;stroke:#000000;stroke-linecap:square;stroke-linejoin:miter;stroke-width:0.8;"/>
   </g>
   <g id="patch_32">
    <path d="M 395.627604 380.561875 
L 522.780857 380.561875 
" style="fill:none;stroke:#000000;stroke-linecap:square;stroke-linejoin:miter;stroke-width:0.8;"/>
   </g>
   <g id="patch_33">
    <path d="M 395.627604 224.918125 
L 522.780857 224.918125 
" style="fill:none;stroke:#000000;stroke-linecap:square;stroke-linejoin:miter;stroke-width:0.8;"/>
   </g>
  </g>
 </g>
 <defs>
  <clipPath id="pacd800f94c">
   <rect height="155.64375" width="127.153253" x="52.160938" y="22.318125"/>
  </clipPath>
  <clipPath id="pec459c991c">
   <rect height="155.64375" width="127.153253" x="223.894271" y="22.318125"/>
  </clipPath>
  <clipPath id="p055be70285">
   <rect height="155.64375" width="127.153253" x="395.627604" y="22.318125"/>
  </clipPath>
  <clipPath id="p2ede4298e3">
   <rect height="155.64375" width="127.153253" x="52.160938" y="224.918125"/>
  </clipPath>
  <clipPath id="pf6da4d95f9">
   <rect height="155.64375" width="127.153253" x="223.894271" y="224.918125"/>
  </clipPath>
  <clipPath id="p0d5973160c">
   <rect height="155.64375" width="127.153253" x="395.627604" y="224.918125"/>
  </clipPath>
 </defs>
</svg>
