<svg width="646" height="630" xmlns="http://www.w3.org/2000/svg" xmlns:xlink="http://www.w3.org/1999/xlink" overflow="hidden"><defs><clipPath id="clip0"><rect x="130" y="90" width="646" height="630"/></clipPath></defs><g clip-path="url(#clip0)" transform="translate(-130 -90)"><path d="M1083.99 584.932 1066 802.054 1030.03 802.054 1012.05 584.932Z" stroke="#ED7D31" stroke-width="2.97057" stroke-miterlimit="8" fill="#FFFFFF" fill-rule="evenodd" transform="matrix(1.00037 0 0 1 -617.564 -189.318)"/><path d="M765.759 801.12 1310.66 801.12 1310.66 805.579 765.759 805.579ZM1307.69 794.438 1325.51 803.35 1307.69 812.261Z" transform="matrix(1.00037 0 0 1 -617.564 -189.318)"/><path d="M2.22793-9.98837e-07 2.22815 506.871-2.2277 506.871-2.22793 9.98837e-07ZM8.9119 503.901 0.000233903 521.724-8.91151 503.901Z" transform="matrix(1.00037 0 0 -1 148.478 614.019)"/><path d="M0 0 0.000701711 429.583" stroke="#4472C4" stroke-width="2.22793" stroke-linejoin="round" stroke-miterlimit="10" stroke-dasharray="8.91171 6.68378" fill="none" fill-rule="evenodd" transform="matrix(1.00037 0 0 -1 430.517 612.612)"/><text font-family="Arial,Arial_MSFontService,sans-serif" font-style="italic" font-weight="400" font-size="83" transform="matrix(0.648364 0 0 0.648124 743.022 675)">f<tspan font-style="normal" font-size="83" x="-628.538" y="-935.006">peaking</tspan><tspan fill="#0070C0" font-size="83" x="-512.254" y="-1.54291">fc</tspan></text><path d="M1012.05 584.932 1030.03 372.347 1066 372.347 1083.99 584.932Z" stroke="#4472C4" stroke-width="2.97057" stroke-miterlimit="8" fill="none" fill-rule="evenodd" transform="matrix(1.00037 0 0 1 -617.564 -189.318)"/><path d="M1327.03 302.35 1439.81 302.35 1439.81 800.757 1327.03 800.757Z" stroke="#FFFFFF" stroke-width="2.97057" stroke-miterlimit="8" fill="#FFFFFF" transform="matrix(1.00037 0 0 1 -617.564 -189.318)"/><path d="M760.574 584.932 1007.14 584.932" stroke="#4472C4" stroke-width="2.97057" stroke-miterlimit="8" fill="none" fill-rule="evenodd" transform="matrix(1.00037 0 0 1 -617.564 -189.318)"/><path d="M1080.75 586.876 1327.31 586.876" stroke="#4472C4" stroke-width="2.97057" stroke-miterlimit="8" fill="none" fill-rule="evenodd" transform="matrix(1.00037 0 0 1 -617.564 -189.318)"/><path d="M1012.05 584.932 1080.57 584.932" stroke="#FFFFFF" stroke-width="2.97057" stroke-miterlimit="8" fill="none" fill-rule="evenodd" transform="matrix(1.00037 0 0 1 -617.564 -189.318)"/><text font-family="Arial,Arial_MSFontService,sans-serif" font-weight="400" font-size="83" transform="matrix(0.648364 0 0 0.648124 492.896 543)">notch</text></g></svg>