<svg width="785" height="618" xmlns="http://www.w3.org/2000/svg" xmlns:xlink="http://www.w3.org/1999/xlink" overflow="hidden"><defs><clipPath id="clip0"><rect x="132" y="102" width="785" height="618"/></clipPath></defs><g clip-path="url(#clip0)" transform="translate(-132 -102)"><path d="M733.903 767.794 1256.13 767.794 1256.13 772.068 733.903 772.068ZM1253.29 761.39 1270.37 769.931 1253.29 778.472Z" transform="matrix(1.00099 0 0 1 -364.256 -158.945)"/><path d="M2.13525-9.57286e-07 2.13546 485.786-2.13503 485.786-2.13525 9.57286e-07ZM8.54117 482.939 0.000224173 500.021-8.5408 482.939Z" transform="matrix(1.00099 0 0 -1 370.373 610.974)"/><path d="M0 0 265.807 281.106" stroke="#4472C4" stroke-width="2.84699" stroke-miterlimit="8" fill="none" fill-rule="evenodd" transform="matrix(1.00099 0 0 -1 370.373 611.328)"/><path d="M999.14 489.165 1243.93 489.165" stroke="#4472C4" stroke-width="2.13525" stroke-linejoin="round" stroke-miterlimit="10" stroke-dasharray="8.54098 6.40574" fill="none" fill-rule="evenodd" transform="matrix(1.00099 0 0 1 -364.256 -158.945)"/><path d="M0 0 224.885 137.319" stroke="#4472C4" stroke-width="2.84699" stroke-miterlimit="8" fill="none" fill-rule="evenodd" transform="matrix(1.00099 0 0 -1 635.872 330.263)"/><path d="M987.959 488.544C987.959 481.683 993.245 476.121 999.761 476.121 1006.28 476.121 1011.56 481.683 1011.56 488.544 1011.56 495.406 1006.28 500.968 999.761 500.968 993.245 500.968 987.959 495.406 987.959 488.544Z" stroke="#2F528F" stroke-width="2.84699" stroke-miterlimit="8" fill="#4472C4" fill-rule="evenodd" transform="matrix(1.00099 0 0 1 -364.256 -158.945)"/><path d="M1128.75 435.383 1128.75 440.016 1128.75 443.549 1128.75 444.985 1128.75 446.228 1128.75 447.237 1128.75 447.974 1128.75 448.44 1128.75 448.595 1128.75 448.751 1128.75 449.217 1128.75 449.955 1128.75 450.964 1128.75 452.206 1128.75 453.682 1128.75 457.176 1128.75 461.808 1127.32 461.808 1127.32 457.176 1127.32 453.682 1127.32 452.206 1127.32 450.964 1127.32 449.955 1127.32 449.217 1127.32 448.751 1127.32 448.595 1127.32 448.44 1127.32 447.974 1127.32 447.237 1127.32 446.228 1127.32 444.985 1127.32 443.549 1127.32 440.016 1127.32 435.383ZM1119.49 438.23 1128.03 421.148 1136.57 438.23ZM1136.57 458.961 1128.03 476.043 1119.49 458.961Z" fill="#4472C4" transform="matrix(1.00099 0 0 1 -364.256 -158.945)"/><text fill="#0070C0" font-family="Arial,Arial_MSFontService,sans-serif" font-weight="400" font-size="83" transform="matrix(0.621777 0 0 0.621162 430.965 301)">threshold<tspan font-size="83" x="570.37" y="4.82965">ratio</tspan><tspan fill="#000000" font-size="83" x="186.176" y="605.317">input dB</tspan><tspan fill="#000000" font-size="83" x="-474.682" y="78.8844">output dB</tspan><tspan fill="#000000" font-size="83" x="0" y="-378.323">c</tspan><tspan fill="#000000" font-size="83" x="41.25" y="-378.323">ompression</tspan><tspan font-size="83" x="111.486" y="354.175">(</tspan><tspan font-size="83" x="139.486" y="354.175">1</tspan><tspan font-size="83" x="185.486" y="354.175">:</tspan><tspan font-size="83" x="208.486" y="354.175">1</tspan><tspan font-size="83" x="254.486" y="354.175">)</tspan></text></g></svg>