<svg width="790" height="620" xmlns="http://www.w3.org/2000/svg" xmlns:xlink="http://www.w3.org/1999/xlink" overflow="hidden"><defs><clipPath id="clip0"><rect x="245" y="100" width="790" height="620"/></clipPath></defs><g clip-path="url(#clip0)" transform="translate(-245 -100)"><path d="M733.252 767.113 1255.02 767.113 1255.02 771.382 733.252 771.382ZM1252.18 760.714 1269.24 769.247 1252.18 777.781Z" transform="matrix(1 0 0 1.00092 -249.127 -158.974)"/><path d="M2.13335-9.56436e-07 2.13357 485.354-2.13313 485.354-2.13335 9.56436e-07ZM8.53359 482.51 0.000223974 499.577-8.53322 482.51Z" transform="matrix(1 0 0 -1.00092 484.125 610.97)"/><path d="M0 0 265.571 280.857" stroke="#4472C4" stroke-width="2.84447" stroke-miterlimit="8" fill="none" fill-rule="evenodd" transform="matrix(1 0 0 -1.00092 694.512 396.393)"/><path d="M0 0 210.942 215.948" stroke="#4472C4" stroke-width="2.13335" stroke-linejoin="round" stroke-miterlimit="10" stroke-dasharray="8.5334 6.40005" fill="none" fill-rule="evenodd" transform="matrix(1 0 0 -1.00092 484.125 614.684)"/><path d="M0 0 41.7349 209.245" stroke="#4472C4" stroke-width="2.84447" stroke-miterlimit="8" fill="none" fill-rule="evenodd" transform="matrix(1 0 0 -1.00092 651.069 607.976)"/><path d="M931.227 554.826C931.227 548.142 936.508 542.724 943.018 542.724 949.529 542.724 954.81 548.142 954.81 554.826 954.81 561.51 949.529 566.928 943.018 566.928 936.508 566.928 931.227 561.51 931.227 554.826Z" stroke="#2F528F" stroke-width="2.84447" stroke-miterlimit="8" fill="#4472C4" fill-rule="evenodd" transform="matrix(1 0 0 1.00092 -249.127 -158.974)"/><path d="M852.056 681.462 857.461 681.536 861.117 681.611 862.643 681.648 863.971 681.729 863.953 681.729 865.008 681.766 865.784 681.81 866.361 681.896 866.547 681.946 866.702 681.983 866.634 681.971 867.143 682.045 867.068 682.039 867.807 682.076 867.794 682.076 868.843 682.114 868.837 682.114 870.165 682.157 871.686 682.232 871.661 682.232 875.31 682.312 875.297 682.312 880.666 682.356 880.653 683.777 875.285 683.733 871.623 683.653 870.097 683.578 870.115 683.578 868.793 683.541 867.738 683.498 866.956 683.46 866.385 683.367 866.199 683.324 866.044 683.287 866.112 683.299 865.604 683.218 865.678 683.225 864.939 683.187 864.952 683.187 863.897 683.15 862.569 683.069 862.594 683.076 861.079 683.032 861.085 683.032 857.436 682.958 857.442 682.958 852.037 682.883ZM854.817 690.734 837.825 682.052 854.966 673.667ZM877.879 674.511 894.884 683.175 877.749 691.578Z" fill="#4472C4" transform="matrix(1 0 0 1.00092 -249.127 -158.974)"/><text fill="#0070C0" font-family="Arial,Arial_MSFontService,sans-serif" font-weight="400" font-size="83" transform="matrix(0.620611 0 0 0.621183 724.587 417)">threshold<tspan font-size="83" x="-290.004" y="272.062">ratio</tspan><tspan fill="#000000" font-size="83" x="-103.828" y="418.557">input dB</tspan><tspan fill="#000000" font-size="83" x="-764.686" y="-107.859">output dB</tspan><tspan fill="#000000" font-size="83" x="-290.004" y="-565.051">expander</tspan><tspan font-size="83" x="177.764" y="-202.839">(</tspan><tspan font-size="83" x="205.764" y="-202.839">1</tspan><tspan font-size="83" x="251.764" y="-202.839">:</tspan>1<tspan font-size="83" x="320.764" y="-202.839">)</tspan></text></g></svg>