<svg width="643" height="632" xmlns="http://www.w3.org/2000/svg" xmlns:xlink="http://www.w3.org/1999/xlink" overflow="hidden"><defs><clipPath id="clip0"><rect x="130" y="88" width="643" height="632"/></clipPath></defs><g clip-path="url(#clip0)" transform="translate(-130 -88)"><path d="M765.53 800.881 1310.27 800.881 1310.27 805.339 765.53 805.339ZM1307.3 794.201 1325.12 803.11 1307.3 812.019Z" transform="matrix(1 0 0 1.00033 -617.064 -189.347)"/><path d="M2.22726-9.98539e-07 2.22749 506.72-2.22704 506.72-2.22726 9.98539e-07ZM8.90924 503.751 0.000233833 521.569-8.90885 503.751Z" transform="matrix(1 0 0 -1.00033 148.466 614.015)"/><path d="M0 0 0.000233833 331.596" stroke="#4472C4" stroke-width="2.22726" stroke-linejoin="round" stroke-miterlimit="10" stroke-dasharray="8.90905 6.68179" fill="none" fill-rule="evenodd" transform="matrix(1 0 0 -1.00033 427.076 603.516)"/><text font-family="Arial,Arial_MSFontService,sans-serif" font-style="italic" font-weight="400" font-size="83" transform="matrix(0.647931 0 0 0.648144 742.612 675)">f<tspan font-style="normal" font-size="83" x="-628.538" y="-934.977">highpass</tspan><tspan fill="#0070C0" font-size="83" x="-512.254" y="-1.54287">fc</tspan></text><path d="M957.318 803.11 1043.01 460.355 1340.08 460.355 1425.77 803.11Z" stroke="#2F528F" stroke-width="2.96968" stroke-miterlimit="8" fill="none" fill-rule="evenodd" transform="matrix(1 0 0 1.00033 -617.064 -189.347)"/><path d="M1325.99 308.739 1438.73 308.739 1438.73 806.998 1325.99 806.998Z" stroke="#FFFFFF" stroke-width="2.96968" stroke-miterlimit="8" fill="#FFFFFF" transform="matrix(1 0 0 1.00033 -617.064 -189.347)"/></g></svg>