<svg width="663" height="425" xmlns="http://www.w3.org/2000/svg" xmlns:xlink="http://www.w3.org/1999/xlink" overflow="hidden"><defs><clipPath id="clip0"><rect x="209" y="0" width="663" height="425"/></clipPath></defs><g clip-path="url(#clip0)" transform="translate(-209 0)"><path d="M0.0037691-1.5102 624.835 0.0492368 624.826 3.06963-0.0037691 1.5102ZM622.836-4.48636 634.9 1.58456 622.805 7.59521Z" transform="matrix(1 0 0 -1.00048 218.071 368.826)"/><path d="M1.5102-6.77063e-07 1.51036 343.583-1.51005 343.583-1.5102 6.77063e-07ZM6.04094 341.57 0.000158551 353.651-6.04068 341.57Z" transform="matrix(1 0 0 -1.00048 218.071 368.549)"/><text font-family="Arial,Arial_MSFontService,sans-serif" font-style="italic" font-weight="400" font-size="83" transform="matrix(0.439331 0 0 0.439544 849.957 414)">t<tspan fill="#4472C4" font-style="normal" font-size="83" x="-1346.41" y="-834.957">direct sound</tspan></text><path d="M509.405 208.463 516.874 208.463 516.874 546.309 509.405 546.309Z" stroke="#FFFFFF" stroke-width="2.0136" stroke-miterlimit="8" fill="#FFFFFF" transform="matrix(1 0 0 1.00048 -300.999 -176.257)"/><path d="M571.351 244.049 571.351 544.78" stroke="#4472C4" stroke-width="2.0136" stroke-miterlimit="8" fill="none" fill-rule="evenodd" transform="matrix(1 0 0 1.00048 -300.999 -176.257)"/><path d="M611.769 292.375 611.769 593.106" stroke="#ED7D31" stroke-width="2.0136" stroke-miterlimit="8" fill="none" fill-rule="evenodd" transform="matrix(1 0 0 1.00048 -300.999 -176.257)"/><path d="M647.355 316.538 647.355 617.27" stroke="#ED7D31" stroke-width="2.0136" stroke-miterlimit="8" fill="none" fill-rule="evenodd" transform="matrix(1 0 0 1.00048 -300.999 -176.257)"/><path d="M664.489 340.702 664.489 641.433" stroke="#ED7D31" stroke-width="2.0136" stroke-miterlimit="8" fill="none" fill-rule="evenodd" transform="matrix(1 0 0 1.00048 -300.999 -176.257)"/><path d="M684.259 364.865 684.259 665.596" stroke="#ED7D31" stroke-width="2.0136" stroke-miterlimit="8" fill="none" fill-rule="evenodd" transform="matrix(1 0 0 1.00048 -300.999 -176.257)"/><path d="M708.422 389.028 708.422 689.759" stroke="#ED7D31" stroke-width="2.0136" stroke-miterlimit="8" fill="none" fill-rule="evenodd" transform="matrix(1 0 0 1.00048 -300.999 -176.257)"/><path d="M726.874 413.191 726.874 713.922" stroke="#ED7D31" stroke-width="2.0136" stroke-miterlimit="8" fill="none" fill-rule="evenodd" transform="matrix(1 0 0 1.00048 -300.999 -176.257)"/><path d="M747.523 437.354 747.523 738.086" stroke="#ED7D31" stroke-width="2.0136" stroke-miterlimit="8" fill="none" fill-rule="evenodd" transform="matrix(1 0 0 1.00048 -300.999 -176.257)"/><path d="M758.506 408.359 758.506 709.09" stroke="#ED7D31" stroke-width="2.0136" stroke-miterlimit="8" fill="none" fill-rule="evenodd" transform="matrix(1 0 0 1.00048 -300.999 -176.257)"/><path d="M771.686 426.371 771.686 727.102" stroke="#ED7D31" stroke-width="2.0136" stroke-miterlimit="8" fill="none" fill-rule="evenodd" transform="matrix(1 0 0 1.00048 -300.999 -176.257)"/><path d="M778.715 473.38 778.715 774.111" stroke="#70AD47" stroke-width="2.0136" stroke-miterlimit="8" fill="none" fill-rule="evenodd" transform="matrix(1 0 0 1.00048 -300.999 -176.257)"/><path d="M785.744 437.354 785.744 738.086" stroke="#70AD47" stroke-width="2.0136" stroke-miterlimit="8" fill="none" fill-rule="evenodd" transform="matrix(1 0 0 1.00048 -300.999 -176.257)"/><path d="M782.669 397.375 782.669 698.107" stroke="#70AD47" stroke-width="2.0136" stroke-miterlimit="8" fill="none" fill-rule="evenodd" transform="matrix(1 0 0 1.00048 -300.999 -176.257)"/><path d="M795.849 415.388 795.849 716.119" stroke="#70AD47" stroke-width="2.0136" stroke-miterlimit="8" fill="none" fill-rule="evenodd" transform="matrix(1 0 0 1.00048 -300.999 -176.257)"/><path d="M802.878 462.396 802.878 763.128" stroke="#70AD47" stroke-width="2.0136" stroke-miterlimit="8" fill="none" fill-rule="evenodd" transform="matrix(1 0 0 1.00048 -300.999 -176.257)"/><path d="M809.908 426.371 809.908 727.102" stroke="#70AD47" stroke-width="2.0136" stroke-miterlimit="8" fill="none" fill-rule="evenodd" transform="matrix(1 0 0 1.00048 -300.999 -176.257)"/><path d="M806.832 440.43 806.832 741.161" stroke="#70AD47" stroke-width="2.0136" stroke-miterlimit="8" fill="none" fill-rule="evenodd" transform="matrix(1 0 0 1.00048 -300.999 -176.257)"/><path d="M820.012 458.442 820.012 759.174" stroke="#70AD47" stroke-width="2.0136" stroke-miterlimit="8" fill="none" fill-rule="evenodd" transform="matrix(1 0 0 1.00048 -300.999 -176.257)"/><path d="M827.042 505.451 827.042 806.182" stroke="#70AD47" stroke-width="2.0136" stroke-miterlimit="8" fill="none" fill-rule="evenodd" transform="matrix(1 0 0 1.00048 -300.999 -176.257)"/><path d="M834.071 469.426 834.071 770.157" stroke="#70AD47" stroke-width="2.0136" stroke-miterlimit="8" fill="none" fill-rule="evenodd" transform="matrix(1 0 0 1.00048 -300.999 -176.257)"/><path d="M838.025 471.183 838.025 771.914" stroke="#70AD47" stroke-width="2.0136" stroke-miterlimit="8" fill="none" fill-rule="evenodd" transform="matrix(1 0 0 1.00048 -300.999 -176.257)"/><path d="M851.205 489.635 851.205 790.366" stroke="#70AD47" stroke-width="2.0136" stroke-miterlimit="8" fill="none" fill-rule="evenodd" transform="matrix(1 0 0 1.00048 -300.999 -176.257)"/><path d="M858.234 536.643 858.234 837.375" stroke="#70AD47" stroke-width="2.0136" stroke-miterlimit="8" fill="none" fill-rule="evenodd" transform="matrix(1 0 0 1.00048 -300.999 -176.257)"/><path d="M865.263 500.179 865.263 800.91" stroke="#70AD47" stroke-width="2.0136" stroke-miterlimit="8" fill="none" fill-rule="evenodd" transform="matrix(1 0 0 1.00048 -300.999 -176.257)"/><path d="M861.309 478.212 861.309 778.943" stroke="#70AD47" stroke-width="2.0136" stroke-miterlimit="8" fill="none" fill-rule="evenodd" transform="matrix(1 0 0 1.00048 -300.999 -176.257)"/><path d="M874.489 496.664 874.489 797.395" stroke="#70AD47" stroke-width="2.0136" stroke-miterlimit="8" fill="none" fill-rule="evenodd" transform="matrix(1 0 0 1.00048 -300.999 -176.257)"/><path d="M881.519 543.673 881.519 844.404" stroke="#70AD47" stroke-width="2.0136" stroke-miterlimit="8" fill="none" fill-rule="evenodd" transform="matrix(1 0 0 1.00048 -300.999 -176.257)"/><path d="M888.548 507.208 888.548 807.939" stroke="#70AD47" stroke-width="2.0136" stroke-miterlimit="8" fill="none" fill-rule="evenodd" transform="matrix(1 0 0 1.00048 -300.999 -176.257)"/><path d="M878.443 481.727 878.443 782.458" stroke="#70AD47" stroke-width="2.0136" stroke-miterlimit="8" fill="none" fill-rule="evenodd" transform="matrix(1 0 0 1.00048 -300.999 -176.257)"/><path d="M891.623 500.179 891.623 800.91" stroke="#70AD47" stroke-width="2.0136" stroke-miterlimit="8" fill="none" fill-rule="evenodd" transform="matrix(1 0 0 1.00048 -300.999 -176.257)"/><path d="M898.653 547.187 898.653 847.919" stroke="#70AD47" stroke-width="2.0136" stroke-miterlimit="8" fill="none" fill-rule="evenodd" transform="matrix(1 0 0 1.00048 -300.999 -176.257)"/><path d="M905.682 510.723 905.682 811.454" stroke="#70AD47" stroke-width="2.0136" stroke-miterlimit="8" fill="none" fill-rule="evenodd" transform="matrix(1 0 0 1.00048 -300.999 -176.257)"/><path d="M896.017 476.894 896.017 777.625" stroke="#70AD47" stroke-width="2.0136" stroke-miterlimit="8" fill="none" fill-rule="evenodd" transform="matrix(1 0 0 1.00048 -300.999 -176.257)"/><path d="M908.757 494.907 908.757 795.638" stroke="#70AD47" stroke-width="2.0136" stroke-miterlimit="8" fill="none" fill-rule="evenodd" transform="matrix(1 0 0 1.00048 -300.999 -176.257)"/><path d="M915.786 541.915 915.786 842.647" stroke="#70AD47" stroke-width="2.0136" stroke-miterlimit="8" fill="none" fill-rule="evenodd" transform="matrix(1 0 0 1.00048 -300.999 -176.257)"/><path d="M922.816 505.89 922.816 806.621" stroke="#70AD47" stroke-width="2.0136" stroke-miterlimit="8" fill="none" fill-rule="evenodd" transform="matrix(1 0 0 1.00048 -300.999 -176.257)"/><path d="M913.15 460.639 913.15 761.37" stroke="#70AD47" stroke-width="2.0136" stroke-miterlimit="8" fill="none" fill-rule="evenodd" transform="matrix(1 0 0 1.00048 -300.999 -176.257)"/><path d="M926.33 479.091 926.33 779.822" stroke="#70AD47" stroke-width="2.0136" stroke-miterlimit="8" fill="none" fill-rule="evenodd" transform="matrix(1 0 0 1.00048 -300.999 -176.257)"/><path d="M933.36 526.099 933.36 826.831" stroke="#70AD47" stroke-width="2.0136" stroke-miterlimit="8" fill="none" fill-rule="evenodd" transform="matrix(1 0 0 1.00048 -300.999 -176.257)"/><path d="M940.389 489.635 940.389 790.366" stroke="#70AD47" stroke-width="2.0136" stroke-miterlimit="8" fill="none" fill-rule="evenodd" transform="matrix(1 0 0 1.00048 -300.999 -176.257)"/><path d="M930.724 505.451 930.724 806.182" stroke="#70AD47" stroke-width="2.0136" stroke-miterlimit="8" fill="none" fill-rule="evenodd" transform="matrix(1 0 0 1.00048 -300.999 -176.257)"/><path d="M943.464 523.903 943.464 824.634" stroke="#70AD47" stroke-width="2.0136" stroke-miterlimit="8" fill="none" fill-rule="evenodd" transform="matrix(1 0 0 1.00048 -300.999 -176.257)"/><path d="M950.494 570.472 950.494 871.203" stroke="#70AD47" stroke-width="2.0136" stroke-miterlimit="8" fill="none" fill-rule="evenodd" transform="matrix(1 0 0 1.00048 -300.999 -176.257)"/><path d="M957.523 534.447 957.523 835.178" stroke="#70AD47" stroke-width="2.0136" stroke-miterlimit="8" fill="none" fill-rule="evenodd" transform="matrix(1 0 0 1.00048 -300.999 -176.257)"/><path d="M947.858 516.873 947.858 817.605" stroke="#70AD47" stroke-width="2.0136" stroke-miterlimit="8" fill="none" fill-rule="evenodd" transform="matrix(1 0 0 1.00048 -300.999 -176.257)"/><path d="M961.038 534.886 961.038 835.617" stroke="#70AD47" stroke-width="2.0136" stroke-miterlimit="8" fill="none" fill-rule="evenodd" transform="matrix(1 0 0 1.00048 -300.999 -176.257)"/><path d="M968.067 581.895 968.067 882.626" stroke="#70AD47" stroke-width="2.0136" stroke-miterlimit="8" fill="none" fill-rule="evenodd" transform="matrix(1 0 0 1.00048 -300.999 -176.257)"/><path d="M974.657 545.869 974.657 846.601" stroke="#70AD47" stroke-width="2.0136" stroke-miterlimit="8" fill="none" fill-rule="evenodd" transform="matrix(1 0 0 1.00048 -300.999 -176.257)"/><path d="M964.992 497.104 964.992 797.835" stroke="#70AD47" stroke-width="2.0136" stroke-miterlimit="8" fill="none" fill-rule="evenodd" transform="matrix(1 0 0 1.00048 -300.999 -176.257)"/><path d="M978.172 515.555 978.172 816.287" stroke="#70AD47" stroke-width="2.0136" stroke-miterlimit="8" fill="none" fill-rule="evenodd" transform="matrix(1 0 0 1.00048 -300.999 -176.257)"/><path d="M985.201 562.564 985.201 863.295" stroke="#70AD47" stroke-width="2.0136" stroke-miterlimit="8" fill="none" fill-rule="evenodd" transform="matrix(1 0 0 1.00048 -300.999 -176.257)"/><path d="M992.23 526.099 992.23 826.831" stroke="#70AD47" stroke-width="2.0136" stroke-miterlimit="8" fill="none" fill-rule="evenodd" transform="matrix(1 0 0 1.00048 -300.999 -176.257)"/><path d="M982.565 496.664 982.565 797.395" stroke="#70AD47" stroke-width="2.0136" stroke-miterlimit="8" fill="none" fill-rule="evenodd" transform="matrix(1 0 0 1.00048 -300.999 -176.257)"/><path d="M995.305 514.677 995.305 815.408" stroke="#70AD47" stroke-width="2.0136" stroke-miterlimit="8" fill="none" fill-rule="evenodd" transform="matrix(1 0 0 1.00048 -300.999 -176.257)"/><path d="M1002.33 561.685 1002.33 862.417" stroke="#70AD47" stroke-width="2.0136" stroke-miterlimit="8" fill="none" fill-rule="evenodd" transform="matrix(1 0 0 1.00048 -300.999 -176.257)"/><path d="M1009.36 525.66 1009.36 826.391" stroke="#70AD47" stroke-width="2.0136" stroke-miterlimit="8" fill="none" fill-rule="evenodd" transform="matrix(1 0 0 1.00048 -300.999 -176.257)"/><path d="M999.699 501.058 999.699 801.789" stroke="#70AD47" stroke-width="2.0136" stroke-miterlimit="8" fill="none" fill-rule="evenodd" transform="matrix(1 0 0 1.00048 -300.999 -176.257)"/><path d="M1012.88 519.07 1012.88 819.801" stroke="#70AD47" stroke-width="2.0136" stroke-miterlimit="8" fill="none" fill-rule="evenodd" transform="matrix(1 0 0 1.00048 -300.999 -176.257)"/><path d="M1019.91 566.079 1019.91 866.81" stroke="#70AD47" stroke-width="2.0136" stroke-miterlimit="8" fill="none" fill-rule="evenodd" transform="matrix(1 0 0 1.00048 -300.999 -176.257)"/><path d="M1026.94 530.053 1026.94 830.785" stroke="#70AD47" stroke-width="2.0136" stroke-miterlimit="8" fill="none" fill-rule="evenodd" transform="matrix(1 0 0 1.00048 -300.999 -176.257)"/><path d="M1016.83 508.087 1016.83 808.818" stroke="#70AD47" stroke-width="2.0136" stroke-miterlimit="8" fill="none" fill-rule="evenodd" transform="matrix(1 0 0 1.00048 -300.999 -176.257)"/><path d="M1030.01 526.099 1030.01 826.831" stroke="#70AD47" stroke-width="2.0136" stroke-miterlimit="8" fill="none" fill-rule="evenodd" transform="matrix(1 0 0 1.00048 -300.999 -176.257)"/><path d="M1037.04 573.108 1037.04 873.839" stroke="#70AD47" stroke-width="2.0136" stroke-miterlimit="8" fill="none" fill-rule="evenodd" transform="matrix(1 0 0 1.00048 -300.999 -176.257)"/><path d="M1044.07 537.083 1044.07 837.814" stroke="#70AD47" stroke-width="2.0136" stroke-miterlimit="8" fill="none" fill-rule="evenodd" transform="matrix(1 0 0 1.00048 -300.999 -176.257)"/><path d="M1034.41 517.313 1034.41 818.044" stroke="#70AD47" stroke-width="2.0136" stroke-miterlimit="8" fill="none" fill-rule="evenodd" transform="matrix(1 0 0 1.00048 -300.999 -176.257)"/><path d="M1047.15 535.765 1047.15 836.496" stroke="#70AD47" stroke-width="2.0136" stroke-miterlimit="8" fill="none" fill-rule="evenodd" transform="matrix(1 0 0 1.00048 -300.999 -176.257)"/><path d="M1054.18 582.773 1054.18 883.504" stroke="#70AD47" stroke-width="2.0136" stroke-miterlimit="8" fill="none" fill-rule="evenodd" transform="matrix(1 0 0 1.00048 -300.999 -176.257)"/><path d="M1061.21 546.309 1061.21 847.04" stroke="#70AD47" stroke-width="2.0136" stroke-miterlimit="8" fill="none" fill-rule="evenodd" transform="matrix(1 0 0 1.00048 -300.999 -176.257)"/><path d="M1051.54 524.342 1051.54 825.073" stroke="#70AD47" stroke-width="2.0136" stroke-miterlimit="8" fill="none" fill-rule="evenodd" transform="matrix(1 0 0 1.00048 -300.999 -176.257)"/><path d="M1064.72 542.794 1064.72 843.525" stroke="#70AD47" stroke-width="2.0136" stroke-miterlimit="8" fill="none" fill-rule="evenodd" transform="matrix(1 0 0 1.00048 -300.999 -176.257)"/><path d="M1071.75 589.802 1071.75 890.534" stroke="#70AD47" stroke-width="2.0136" stroke-miterlimit="8" fill="none" fill-rule="evenodd" transform="matrix(1 0 0 1.00048 -300.999 -176.257)"/><path d="M1078.78 553.338 1078.78 854.069" stroke="#70AD47" stroke-width="2.0136" stroke-miterlimit="8" fill="none" fill-rule="evenodd" transform="matrix(1 0 0 1.00048 -300.999 -176.257)"/><path d="M1069.11 528.735 1069.11 829.467" stroke="#70AD47" stroke-width="2.0136" stroke-miterlimit="8" fill="none" fill-rule="evenodd" transform="matrix(1 0 0 1.00048 -300.999 -176.257)"/><path d="M1081.85 547.187 1081.85 847.919" stroke="#70AD47" stroke-width="2.0136" stroke-miterlimit="8" fill="none" fill-rule="evenodd" transform="matrix(1 0 0 1.00048 -300.999 -176.257)"/><path d="M1088.88 594.196 1088.88 894.927" stroke="#70AD47" stroke-width="2.0136" stroke-miterlimit="8" fill="none" fill-rule="evenodd" transform="matrix(1 0 0 1.00048 -300.999 -176.257)"/><path d="M1095.91 557.731 1095.91 858.462" stroke="#70AD47" stroke-width="2.0136" stroke-miterlimit="8" fill="none" fill-rule="evenodd" transform="matrix(1 0 0 1.00048 -300.999 -176.257)"/><path d="M455.806 546.309 1126.67 546.309 1126.67 891.623 455.806 891.623Z" stroke="#FFFFFF" stroke-width="2.0136" stroke-miterlimit="8" fill="#FFFFFF" transform="matrix(1 0 0 1.00048 -300.999 -176.257)"/><text fill="#ED7D31" font-family="Arial,Arial_MSFontService,sans-serif" font-weight="400" font-size="83" transform="matrix(0.439331 0 0 0.439544 375.211 130)">early <tspan font-size="83" x="0" y="100.104">reflections</tspan><tspan fill="#70AD47" font-size="83" x="360.412" y="282.111">late reflections</tspan></text><path d="M0 0 624.681 0.000158551" stroke="#000000" stroke-width="2.0136" stroke-miterlimit="8" fill="none" fill-rule="evenodd" transform="matrix(-1 0 0 1.00048 842.752 367.239)"/><path d="M0 0 624.681 0.000158551" stroke="#000000" stroke-width="2.0136" stroke-miterlimit="8" fill="none" fill-rule="evenodd" transform="matrix(-1 0 0 1.00048 844.509 367.678)"/></g></svg>