<svg width="781" height="616" xmlns="http://www.w3.org/2000/svg" xmlns:xlink="http://www.w3.org/1999/xlink" overflow="hidden"><defs><clipPath id="clip0"><rect x="151" y="104" width="781" height="616"/></clipPath></defs><g clip-path="url(#clip0)" transform="translate(-151 -104)"><path d="M738.339 772.434 1263.72 772.434 1263.72 776.734 738.339 776.734ZM1260.86 765.991 1278.05 774.584 1260.86 783.177Z" transform="matrix(1.00011 0 0 1 -348.428 -164.257)"/><path d="M2.14815-9.63071e-07 2.14837 488.722-2.14793 488.722-2.14815 9.63071e-07ZM8.59279 485.858 0.000225527 503.043-8.59241 485.858Z" transform="matrix(1.00011 0 0 -1 389.991 610.315)"/><path d="M0 0 267.413 282.805" stroke="#4472C4" stroke-width="2.8642" stroke-miterlimit="8" fill="none" fill-rule="evenodd" transform="matrix(1.00011 0 0 -1 389.991 610.671)"/><path d="M1005.18 492.122 1251.45 492.122" stroke="#4472C4" stroke-width="2.14815" stroke-linejoin="round" stroke-miterlimit="10" stroke-dasharray="8.5926 6.44445" fill="none" fill-rule="evenodd" transform="matrix(1.00011 0 0 1 -348.428 -164.257)"/><path d="M1005.18 492.122 1265.29 492.122" stroke="#4472C4" stroke-width="2.8642" stroke-miterlimit="8" fill="none" fill-rule="evenodd" transform="matrix(1.00011 0 0 1 -348.428 -164.257)"/><path d="M993.93 491.497C993.93 484.594 999.248 478.998 1005.8 478.998 1012.36 478.998 1017.68 484.594 1017.68 491.497 1017.68 498.4 1012.36 503.995 1005.8 503.995 999.248 503.995 993.93 498.4 993.93 491.497Z" stroke="#2F528F" stroke-width="2.8642" stroke-miterlimit="8" fill="#4472C4" fill-rule="evenodd" transform="matrix(1.00011 0 0 1 -348.428 -164.257)"/><text fill="#0070C0" font-family="Arial,Arial_MSFontService,sans-serif" font-weight="400" font-size="83" transform="matrix(0.624985 0 0 0.624916 450.896 298)">threshold<tspan fill="#000000" font-size="83" x="186.176" y="606.481">input dB</tspan><tspan fill="#000000" font-size="83" x="-474.682" y="80.0107">output dB</tspan><tspan fill="#000000" font-size="83" x="148.509" y="-371.25">l</tspan><tspan fill="#000000" font-size="83" x="166.842" y="-371.25">imiter</tspan><tspan font-size="83" x="111.486" y="355.247">(</tspan><tspan font-size="83" x="139.486" y="355.247">1</tspan><tspan font-size="83" x="185.486" y="355.247">:</tspan><tspan font-size="83" x="208.486" y="355.247">1</tspan><tspan font-size="83" x="254.486" y="355.247">)</tspan><tspan font-size="83" x="459.35" y="132.818">(</tspan><tspan font-size="83" x="487.35" y="132.818">âˆ</tspan><tspan font-size="83" x="546.35" y="132.818">:</tspan>1)</text></g></svg>